<svg xmlns="http://www.w3.org/2000/svg" viewBox="0 0 150 267.28"><defs><style>.cls-1{fill:#009544;}</style></defs><title>アセット 2</title><g id="レイヤー_2" data-name="レイヤー 2"><g id="_2" data-name="2"><path class="cls-1" d="M88.13,179.56c14.32,5.19,21.44-1.43,24.06-6.06s4.85-10.93,2.61-14.07a21.47,21.47,0,0,0-11.29-8.14c-5.66-1.88-7.18-1.34-9-1.29-2.32.07-3.78,1.9-4.61,4.06s-2.63,6-4.35,5.26-9.62-7.18-18-18.95-11.83-21.35-12-23.22,4-2.07,6.36-2.15,4.51-.85,5.34-3c.65-1.7,1.69-3.17,1.78-9.14a21.46,21.46,0,0,0-4-13.34c-2.24-3.15-8.92-3.13-14.15-2.17s-13.83,5.49-13.65,20.73S46.74,141,53.44,150.42,73.8,174.37,88.13,179.56Z"/><path class="cls-1" d="M150,0H0V267.28H150ZM53.75,13.88a2.48,2.48,0,0,1,2.47-2.47H93.78a2.48,2.48,0,0,1,2.47,2.47h0a2.47,2.47,0,0,1-2.47,2.47H56.22a2.47,2.47,0,0,1-2.47-2.47ZM85.33,248a10.41,10.41,0,1,1-11.68-11.68A10.44,10.44,0,0,1,85.33,248Zm47.14-21.44H17.53V26.8H132.47Z"/></g></g></svg>