<svg id="レイヤー_1" data-name="レイヤー 1" xmlns="http://www.w3.org/2000/svg" viewBox="0 0 104 104"><defs><style>.cls-1{fill:#009544;}</style></defs><title>icon</title><path class="cls-1" d="M72,103.83v-40c.33,0,.63,0,.93,0h11.5c.31,0,.62,0,1,0,.68-5.26,1.35-10.48,2-15.78-.41,0-.74-.08-1.06-.08H73c-.33,0-.66,0-1-.06,0-.27-.06-.48-.06-.69,0-3.37,0-6.75,0-10.13a11.26,11.26,0,0,1,.39-2.56A4.81,4.81,0,0,1,75.69,31a12,12,0,0,1,3.77-.55h8.46c0-.29.07-.52.07-.75,0-4.25,0-8.49,0-12.74,0-.71,0-.72-.71-.79a103.67,103.67,0,0,0-12.2-.55,22,22,0,0,0-9,2,17.25,17.25,0,0,0-9.31,10.69,24,24,0,0,0-1.19,7.47c0,3.71,0,7.42,0,11.14v.94c-.33,0-.63.08-.93.08H43c-.33,0-.65,0-1,.08,0,.33,0,.59,0,.85V62.92c0,.12,0,.24,0,.36,0,.38.18.52.53.51h13v40a3.54,3.54,0,0,1-.51.1c-.41,0-.82,0-1.23,0H6.4a6.38,6.38,0,0,1-3.35-.71A5.39,5.39,0,0,1,.16,98.33c0-3,0-6.08,0-9.12q0-41.64,0-83.27a5.81,5.81,0,0,1,.91-3.36A5.67,5.67,0,0,1,5.6,0H97.84a6.27,6.27,0,0,1,3,.59,5.59,5.59,0,0,1,3.2,5V6q0,46,0,92a5.72,5.72,0,0,1-3.85,5.61,6.79,6.79,0,0,1-2.05.31q-12.7,0-25.4,0C72.49,103.87,72.27,103.85,72,103.83Z"/></svg>