<svg id="レイヤー_1" data-name="レイヤー 1" xmlns="http://www.w3.org/2000/svg" viewBox="0 0 100.29 99.96"><defs><style>.cls-1{fill:#fff;}</style></defs><title>icon</title><path class="cls-1" d="M69.3,99.88V61.38c.31,0,.6,0,.9,0H81.27c.3,0,.59,0,1,0,.66-5.07,1.3-10.09,2-15.2-.39,0-.71-.07-1-.07H70.3l-1-.06c0-.26-.06-.46-.06-.66,0-3.25,0-6.5,0-9.75a10.85,10.85,0,0,1,.37-2.47,4.65,4.65,0,0,1,3.23-3.36,11.8,11.8,0,0,1,3.64-.53c2.41,0,4.82,0,7.24,0h.9c0-.28.06-.51.06-.73q0-6.12,0-12.25c0-.69,0-.7-.69-.77a98.2,98.2,0,0,0-11.75-.52,21,21,0,0,0-8.71,1.9,16.61,16.61,0,0,0-9,10.29,23.41,23.41,0,0,0-1.15,7.19c0,3.57,0,7.15,0,10.72v.91c-.32,0-.61.08-.9.08H41.42c-.32,0-.64,0-1,.07,0,.32,0,.57,0,.82V60.84c0,.36.18.5.52.49h12.5V99.82a2.37,2.37,0,0,1-.49.09c-.39,0-.79,0-1.18,0H6.18A6.13,6.13,0,0,1,3,99.24,5.22,5.22,0,0,1,.16,94.58c0-2.93,0-5.85,0-8.78q0-40.08,0-80.16A5.62,5.62,0,0,1,1,2.41,5.45,5.45,0,0,1,5.4-.06c.21,0,.42,0,.63,0H94.22a5.86,5.86,0,0,1,2.83.56,5.39,5.39,0,0,1,3.09,4.85v.35q0,44.25,0,88.52a5.52,5.52,0,0,1-3.7,5.4,6.71,6.71,0,0,1-2,.3q-12.22,0-24.45,0C69.81,99.92,69.6,99.9,69.3,99.88Z"/></svg>