<svg id="レイヤー_1" data-name="レイヤー 1" xmlns="http://www.w3.org/2000/svg" viewBox="0 0 104 104"><defs><style>.cls-1{fill:#009544;}</style></defs><title>icon</title><path class="cls-1" d="M96.52,0h-89A7.48,7.48,0,0,0,0,7.48v89A7.48,7.48,0,0,0,7.48,104h89A7.48,7.48,0,0,0,104,96.52v-89A7.48,7.48,0,0,0,96.52,0ZM87.78,31.68c-1.85,2-3.66,4-5.59,5.9a3.29,3.29,0,0,0-1.1,2.27,55.64,55.64,0,0,1-1.08,9C76.18,63.72,67.16,73.75,52.1,77.89c-1.87.52-3.83.75-5.75,1.11H38.06c-2-.4-3.92-.75-5.86-1.21a45.43,45.43,0,0,1-11-4.67v-.27c.35,0,.71,0,1.07,0a27.07,27.07,0,0,0,16.6-4c.67-.4,1.29-.88,1.94-1.32a16.48,16.48,0,0,1-7.41-3.08,12.64,12.64,0,0,1-4.7-6.75h5l.08-.36a14.13,14.13,0,0,1-7.15-4.89,13.09,13.09,0,0,1-2.78-8.3L29,45.62l.23-.43a14.12,14.12,0,0,1-5.05-8.12,13.46,13.46,0,0,1,1.53-9.44,3.23,3.23,0,0,1,.46.2c.25.26.48.52.72.79A38.65,38.65,0,0,0,51.58,41.46c1.77.21,2.25.13,2.05-1.73a12.93,12.93,0,0,1,2.9-9.6A14.93,14.93,0,0,1,65.06,25H69.6a16.13,16.13,0,0,1,7.26,3.76,1.77,1.77,0,0,0,1.47.19c2.1-.7,4.17-1.5,6.25-2.27.35-.12.68-.28,1.34-.55A14.82,14.82,0,0,1,81,33l.24.38,6.56-2Z"/></svg>