<svg id="レイヤー_1" data-name="レイヤー 1" xmlns="http://www.w3.org/2000/svg" viewBox="0 0 99.95 99.89"><defs><style>.cls-1{fill:#fff;}</style></defs><title>icon</title><path class="cls-1" d="M99.92,5.79V5.44A5.38,5.38,0,0,0,96.84.59,6,6,0,0,0,94,0H5.81c-.21,0-.42,0-.63,0A5.42,5.42,0,0,0,.81,2.51,5.58,5.58,0,0,0-.07,5.75q0,40.08,0,80.16c0,2.92,0,5.85,0,8.77a5.23,5.23,0,0,0,2.79,4.67A6.22,6.22,0,0,0,6,100l88.29,0a6.65,6.65,0,0,0,2-.3,5.5,5.5,0,0,0,3.7-5.4Q99.9,50,99.92,5.79ZM83.21,29.71c-1.85,2-3.66,4-5.59,5.89a3.35,3.35,0,0,0-1.1,2.28,55.64,55.64,0,0,1-1.08,9C71.61,61.74,62.59,71.78,47.53,75.92c-1.87.52-3.83.75-5.75,1.11H33.49c-2-.4-3.92-.75-5.85-1.21a45.73,45.73,0,0,1-11-4.67v-.27c.36,0,.71,0,1.07,0a27.07,27.07,0,0,0,16.6-4c.67-.4,1.29-.88,1.94-1.32a16.48,16.48,0,0,1-7.41-3.08,12.64,12.64,0,0,1-4.7-6.75h5l.08-.36a14.06,14.06,0,0,1-7.14-4.89,13,13,0,0,1-2.79-8.3l5.11,1.4.23-.43a14,14,0,0,1-5-8.13,13.44,13.44,0,0,1,1.52-9.43,3.23,3.23,0,0,1,.46.2c.25.26.49.52.72.79A38.65,38.65,0,0,0,47,39.49c1.77.21,2.25.13,2.05-1.73a12.93,12.93,0,0,1,2.9-9.6A14.93,14.93,0,0,1,60.49,23H65a16,16,0,0,1,7.25,3.76,1.77,1.77,0,0,0,1.47.19c2.11-.7,4.18-1.5,6.25-2.27.35-.12.68-.28,1.34-.55a14.82,14.82,0,0,1-4.94,6.91l.24.38,6.56-2Z"/></svg>