<svg id="レイヤー_1" data-name="レイヤー 1" xmlns="http://www.w3.org/2000/svg" viewBox="0 0 231.75 281.96"><defs><style>.cls-1{fill:#fff;}</style></defs><title>mb-logo-vartical</title><path class="cls-1" d="M38.75,224h2.11l4,11.05,1.5,4.22h.11c.5-1.4.94-2.82,1.42-4.22l4-11.05h2.1V243.2h-1.5V231c0-1.58.11-3.69.19-5.3h-.11L51,230l-4,11.13H45.69L41.63,230l-1.51-4.3H40c.08,1.61.18,3.72.18,5.3V243.2H38.75Z"/><path class="cls-1" d="M62.08,224h1.58V243.2H62.08Z"/><path class="cls-1" d="M82.45,243.2l-5.11-8.67H73.41v8.67H71.82V224h5.62c3.82,0,6.41,1.4,6.41,5.14,0,3.06-1.87,4.83-4.8,5.28l5.19,8.8Zm-9-10h3.66c3.33,0,5.17-1.32,5.17-4.09s-1.84-3.82-5.17-3.82H73.41Z"/><path class="cls-1" d="M99.11,236.74H91.62l-2.19,6.46H87.85L94.57,224h1.64l6.72,19.22h-1.69Zm-.43-1.26L97.52,232c-.79-2.24-1.42-4.27-2.1-6.6h-.11c-.66,2.33-1.32,4.36-2.08,6.6L92,235.48Z"/><path class="cls-1" d="M108.48,224h1.59V243.2h-1.59Z"/><path class="cls-1" d="M126.65,224H132c3.88,0,6.41,1.42,6.41,4.67a4.13,4.13,0,0,1-3,4.19V233c2.48.43,4.11,2,4.11,4.62,0,3.71-2.85,5.61-7.17,5.61h-5.7Zm4.8,8.39c3.8,0,5.33-1.35,5.33-3.54,0-2.61-1.77-3.56-5.17-3.56h-3.37v7.1Zm.53,9.52c3.72,0,6-1.32,6-4.3,0-2.69-2.17-4-6-4h-3.74v8.26Z"/><path class="cls-1" d="M154.83,236.74h-7.49l-2.18,6.46h-1.59L150.3,224h1.63l6.73,19.22H157Zm-.42-1.26L153.25,232c-.79-2.24-1.42-4.27-2.11-6.6H151c-.66,2.33-1.32,4.36-2.09,6.6l-1.18,3.48Z"/><path class="cls-1" d="M162.76,240.67l1-1.1a7.38,7.38,0,0,0,5.56,2.55c2.85,0,4.61-1.5,4.61-3.69s-1.5-3.06-3.4-3.9l-2.87-1.27c-1.71-.76-3.9-2-3.9-4.8s2.42-4.82,5.69-4.82a7.33,7.33,0,0,1,5.43,2.32l-.89,1a6.19,6.19,0,0,0-4.54-1.93c-2.45,0-4.09,1.29-4.09,3.27,0,2.19,1.88,3,3.27,3.61l2.88,1.27c2.19,1,4,2.19,4,5.12s-2.45,5.22-6.22,5.22A8.53,8.53,0,0,1,162.76,240.67Z"/><path class="cls-1" d="M182.08,224h10.63v1.35h-9.05v7h7.62v1.34h-7.62v8.15H193v1.37H182.08Z"/><path class="cls-1" d="M38.79,212.42a3.69,3.69,0,0,1,3.64-4,3.13,3.13,0,0,1,2.23.92l-.6.76a2.3,2.3,0,0,0-1.59-.71c-1.43,0-2.49,1.23-2.49,3.06s1,3,2.46,3a2.94,2.94,0,0,0,1.86-.78l.5.76a3.63,3.63,0,0,1-2.46,1C40.33,216.41,38.79,214.94,38.79,212.42Z"/><path class="cls-1" d="M48.67,212.42c0-2.56,1.64-4,3.5-4s3.53,1.47,3.53,4-1.66,4-3.53,4S48.67,214.94,48.67,212.42Zm5.84,0c0-1.83-1-3.06-2.34-3.06s-2.32,1.23-2.32,3.06.95,3,2.32,3S54.51,214.23,54.51,212.42Z"/><path class="cls-1" d="M59.8,211.82h3.58v.91H59.8Z"/><path class="cls-1" d="M67.1,208.58h1.18l1.2,4.55c.17.72.31,1.4.46,2.1H70c.19-.7.34-1.38.54-2.1l1.23-4.55h1.16l1.25,4.55c.18.72.35,1.4.53,2.1h.06c.17-.7.31-1.38.49-2.1l1.18-4.55h1.1l-2.09,7.64h-1.4L72.89,212c-.21-.74-.36-1.43-.54-2.21h-.07c-.17.78-.33,1.5-.55,2.22l-1.12,4.24H69.25Z"/><path class="cls-1" d="M81.37,212.42c0-2.56,1.64-4,3.51-4s3.53,1.47,3.53,4-1.66,4-3.53,4S81.37,214.94,81.37,212.42Zm5.85,0c0-1.83-1-3.06-2.34-3.06s-2.32,1.23-2.32,3.06,1,3,2.32,3S87.22,214.23,87.22,212.42Z"/><path class="cls-1" d="M93.2,208.58h.93l.12,1.4h0a2.63,2.63,0,0,1,2.16-1.59,1.61,1.61,0,0,1,.81.17l-.23,1a2.05,2.05,0,0,0-.72-.13c-.65,0-1.44.48-2,1.81v5H93.2Z"/><path class="cls-1" d="M101.28,205h1.12v7.8h0l3.4-4.18h1.27l-2.55,3.06,2.9,4.58H106.2l-2.3-3.77-1.5,1.75v2h-1.12Z"/><path class="cls-1" d="M111.42,206.16a.77.77,0,0,1,.84-.79.78.78,0,0,1,.83.79.79.79,0,0,1-.83.78A.78.78,0,0,1,111.42,206.16Zm.26,2.42h1.14v7.64h-1.14Z"/><path class="cls-1" d="M118.2,208.58h.93l.12,1.12h0a3.71,3.71,0,0,1,2.58-1.31c1.59,0,2.33,1,2.33,3v4.85H123v-4.71c0-1.47-.45-2.12-1.51-2.12a3,3,0,0,0-2.18,1.25v5.58H118.2Z"/><path class="cls-1" d="M128.87,217.71A2.22,2.22,0,0,1,130,216v0a1.4,1.4,0,0,1-.69-1.26,1.83,1.83,0,0,1,.85-1.41v-.06a2.69,2.69,0,0,1,1.83-4.78,3.11,3.11,0,0,1,1.07.19h2.64v.9h-1.61a2.29,2.29,0,0,1,.66,1.65,2.62,2.62,0,0,1-2.76,2.68,2.56,2.56,0,0,1-1.17-.29,1.23,1.23,0,0,0-.51,1c0,.5.31.87,1.36.87h1.53c1.75,0,2.63.55,2.63,1.81s-1.49,2.62-3.81,2.62C130.14,219.78,128.87,219,128.87,217.71Zm5.83-.38c0-.75-.55-1-1.6-1h-1.4a5,5,0,0,1-1-.12,1.7,1.7,0,0,0-.83,1.37c0,.85.85,1.4,2.29,1.4S134.7,218.15,134.7,217.33Zm-1-6.21a1.73,1.73,0,0,0-1.72-1.87,1.71,1.71,0,0,0-1.71,1.87,1.72,1.72,0,1,0,3.43,0Z"/><path class="cls-1" d="M145.05,215.36l.58-.78a3.45,3.45,0,0,0,2.31.92c1.06,0,1.58-.56,1.58-1.27s-.92-1.19-1.78-1.5c-1.09-.4-2.3-.91-2.3-2.21s.94-2.13,2.59-2.13a3.79,3.79,0,0,1,2.32.85l-.56.74a2.92,2.92,0,0,0-1.76-.67c-1,0-1.49.53-1.49,1.16s.85,1.06,1.73,1.37c1.11.44,2.36.88,2.36,2.33,0,1.22-1,2.24-2.73,2.24A4.66,4.66,0,0,1,145.05,215.36Z"/><path class="cls-1" d="M155.21,208.58h.94l.11.9h0a4.17,4.17,0,0,1,2.46-1.09c2,0,3.06,1.54,3.06,3.89,0,2.61-1.57,4.13-3.34,4.13a3.59,3.59,0,0,1-2.15-.89l0,1.34v2.65h-1.15Zm5.41,3.71c0-1.73-.6-2.93-2.12-2.93a3.3,3.3,0,0,0-2.14,1.11v4.13a3.07,3.07,0,0,0,1.95.83C159.64,215.43,160.62,214.23,160.62,212.29Z"/><path class="cls-1" d="M166.13,214.26c0-1.67,1.46-2.49,4.74-2.86,0-1-.31-2.05-1.62-2.05a4.14,4.14,0,0,0-2.32.85l-.47-.81a5.53,5.53,0,0,1,3-1c1.85,0,2.59,1.26,2.59,3.09v4.74h-1l-.1-.93h0a4.11,4.11,0,0,1-2.57,1.12A2.06,2.06,0,0,1,166.13,214.26Zm4.74.15v-2.23c-2.7.31-3.62,1-3.62,2s.64,1.28,1.42,1.28A3.26,3.26,0,0,0,170.87,214.41Z"/><path class="cls-1" d="M176.66,212.42a3.69,3.69,0,0,1,3.63-4,3.15,3.15,0,0,1,2.24.92l-.61.76a2.27,2.27,0,0,0-1.58-.71c-1.43,0-2.49,1.23-2.49,3.06s1,3,2.46,3a2.89,2.89,0,0,0,1.85-.78l.51.76a3.67,3.67,0,0,1-2.46,1C178.2,216.41,176.66,214.94,176.66,212.42Z"/><path class="cls-1" d="M186.53,212.42c0-2.49,1.66-4,3.41-4,1.91,0,3,1.37,3,3.58a3.54,3.54,0,0,1-.06.69h-5.22a2.64,2.64,0,0,0,2.62,2.83,3.39,3.39,0,0,0,1.94-.62l.42.76a4.47,4.47,0,0,1-2.5.78C188.15,216.41,186.53,214.92,186.53,212.42Zm5.41-.6c0-1.64-.74-2.5-2-2.5a2.46,2.46,0,0,0-2.29,2.5Z"/><path class="cls-1" d="M115.87,38.81,38.79,115.89,115.87,193,193,115.89Zm0,8.32,68.77,68.76L132.33,168.2l-4.13-4.13L115.87,176.4l-12.32-12.33-4.13,4.13L47.11,115.89Z"/><rect class="cls-1" x="91.57" y="91.59" width="48.62" height="48.62" transform="translate(-48.01 115.88) rotate(-45)"/><polygon class="cls-1" points="115.87 157.15 95.77 137.04 89.58 143.23 115.87 169.52 142.17 143.23 135.98 137.04 115.87 157.15"/></svg>