<?xml version="1.0" encoding="utf-8"?>
<!-- Generator: Adobe Illustrator 22.0.1, SVG Export Plug-In . SVG Version: 6.00 Build 0)  -->
<svg version="1.1" id="レイヤー_1" xmlns="http://www.w3.org/2000/svg" xmlns:xlink="http://www.w3.org/1999/xlink" x="0px"
	 y="0px" viewBox="0 0 154.6 205" style="enable-background:new 0 0 154.6 205;" xml:space="preserve">
<style type="text/css">
	.st0{fill:#FFFFFF;}
	.st1{fill:#009544;}
</style>
<title>mb-logo-vartical-greenAndWhite</title>
<path class="st0" d="M0.2,185.4h2.1l4,11.1l1.5,4.2H8c0.5-1.4,0.9-2.8,1.4-4.2l4-11.1h2.1v19.2H14v-12.2c0-1.6,0.1-3.7,0.2-5.3h-0.1
	l-1.6,4.3l-4,11.1H7.2l-4.1-11.1l-1.5-4.3H1.5c0.1,1.6,0.2,3.7,0.2,5.3v12.2H0.2V185.4z"/>
<path class="st0" d="M23.6,185.4h1.6v19.2h-1.6V185.4z"/>
<path class="st0" d="M43.9,204.6l-5.1-8.7h-3.9v8.7h-1.6v-19.2h5.6c3.8,0,6.4,1.4,6.4,5.1c0,3.1-1.9,4.8-4.8,5.3l5.2,8.8L43.9,204.6
	z M34.9,194.6h3.7c3.3,0,5.2-1.3,5.2-4.1s-1.8-3.8-5.2-3.8h-3.7L34.9,194.6z"/>
<path class="st0" d="M60.6,198.2h-7.5l-2.2,6.5h-1.6l6.7-19.2h1.6l6.7,19.2h-1.7L60.6,198.2z M60.2,196.9l-1.2-3.5
	c-0.8-2.2-1.4-4.3-2.1-6.6h-0.1c-0.7,2.3-1.3,4.4-2.1,6.6l-1.2,3.5L60.2,196.9z"/>
<path class="st0" d="M70,185.4h1.6v19.2H70V185.4z"/>
<path class="st0" d="M88.1,185.4h5.3c3.9,0,6.4,1.4,6.4,4.7c0.1,1.9-1.1,3.7-3,4.2v0.1c2.5,0.4,4.1,2,4.1,4.6c0,3.7-2.9,5.6-7.2,5.6
	h-5.7L88.1,185.4z M92.9,193.8c3.8,0,5.3-1.4,5.3-3.5c0-2.6-1.8-3.6-5.2-3.6h-3.4v7.1L92.9,193.8z M93.5,203.3c3.7,0,6-1.3,6-4.3
	c0-2.7-2.2-4-6-4h-3.7v8.3L93.5,203.3z"/>
<path class="st0" d="M116.3,198.2h-7.5l-2.2,6.5h-1.6l6.7-19.2h1.6l6.7,19.2h-1.7L116.3,198.2z M115.9,196.9l-1.2-3.5
	c-0.8-2.2-1.4-4.3-2.1-6.6h-0.1c-0.7,2.3-1.3,4.4-2.1,6.6l-1.2,3.5L115.9,196.9z"/>
<path class="st0" d="M124.2,202.1l1-1.1c1.4,1.6,3.4,2.5,5.6,2.6c2.9,0,4.6-1.5,4.6-3.7s-1.5-3.1-3.4-3.9l-2.9-1.3
	c-1.7-0.8-3.9-2-3.9-4.8s2.4-4.8,5.7-4.8c2.1,0,4,0.8,5.4,2.3l-0.9,1c-1.2-1.2-2.8-1.9-4.5-1.9c-2.4,0-4.1,1.3-4.1,3.3
	c0,2.2,1.9,3,3.3,3.6l2.9,1.3c2.2,1,4,2.2,4,5.1s-2.4,5.2-6.2,5.2C128.3,205,125.9,203.9,124.2,202.1z"/>
<path class="st0" d="M143.6,185.4h10.6v1.4h-9.1v7h7.6v1.3h-7.6v8.1h9.3v1.4h-10.9V185.4z"/>
<path class="st0" d="M0.3,173.8c-0.2-2,1.3-3.8,3.4-4c0.1,0,0.2,0,0.3,0c0.8,0,1.6,0.3,2.2,0.9l-0.6,0.8c-0.4-0.4-1-0.7-1.6-0.7
	c-1.4,0-2.5,1.2-2.5,3.1s1,3,2.5,3c0.7,0,1.4-0.3,1.9-0.8l0.5,0.8c-0.7,0.6-1.5,1-2.5,1C1.8,177.8,0.3,176.4,0.3,173.8z"/>
<path class="st0" d="M10.2,173.8c0-2.6,1.6-4,3.5-4s3.5,1.5,3.5,4s-1.7,4-3.5,4S10.2,176.4,10.2,173.8z M16,173.8
	c0-1.8-1-3.1-2.3-3.1s-2.3,1.2-2.3,3.1s1,3,2.3,3S16,175.6,16,173.8z"/>
<path class="st0" d="M21.3,173.2h3.6v0.9h-3.6V173.2z"/>
<path class="st0" d="M28.6,170h1.2l1.2,4.6c0.2,0.7,0.3,1.4,0.5,2.1h0.1c0.2-0.7,0.3-1.4,0.5-2.1l1.2-4.6h1.2l1.2,4.6
	c0.2,0.7,0.3,1.4,0.5,2.1h0.1c0.2-0.7,0.3-1.4,0.5-2.1l1.2-4.6H39l-2.1,7.6h-1.4l-1.2-4.2c-0.2-0.7-0.4-1.4-0.5-2.2h-0.1
	c-0.2,0.8-0.3,1.5-0.6,2.2l-1.1,4.2h-1.4L28.6,170z"/>
<path class="st0" d="M42.9,173.8c0-2.6,1.6-4,3.5-4s3.5,1.5,3.5,4s-1.7,4-3.5,4S42.9,176.4,42.9,173.8z M48.7,173.8
	c0-1.8-1-3.1-2.3-3.1S44,172,44,173.8s1,3,2.3,3S48.7,175.6,48.7,173.8z"/>
<path class="st0" d="M54.7,170h0.9l0.1,1.4l0,0c0.4-0.9,1.2-1.5,2.2-1.6c0.3,0,0.6,0,0.8,0.2l-0.2,1c-0.2-0.1-0.5-0.1-0.7-0.1
	c-0.7,0-1.4,0.5-2,1.8v5h-1.1V170z"/>
<path class="st0" d="M62.8,166.4h1.1v7.8l0,0l3.4-4.2h1.3l-2.6,3.1l2.9,4.6h-1.2l-2.3-3.8l-1.5,1.8v2h-1.1L62.8,166.4z"/>
<path class="st0" d="M72.9,167.6c0-0.4,0.3-0.8,0.7-0.8c0,0,0.1,0,0.1,0c0.4,0,0.8,0.3,0.8,0.7c0,0,0,0,0,0.1c0,0.4-0.4,0.8-0.8,0.8
	c0,0,0,0,0,0C73.3,168.4,72.9,168.1,72.9,167.6C72.9,167.6,72.9,167.6,72.9,167.6z M73.2,170h1.1v7.6h-1.1V170z"/>
<path class="st0" d="M79.7,170h0.9l0.1,1.1l0,0c0.6-0.8,1.6-1.2,2.6-1.3c1.6,0,2.3,1,2.3,3v4.9h-1.2v-4.7c0-1.5-0.4-2.1-1.5-2.1
	c-0.9,0.1-1.7,0.5-2.2,1.2v5.6h-1.1V170z"/>
<path class="st0" d="M90.4,179.1c0.1-0.7,0.5-1.4,1.1-1.7l0,0c-0.4-0.3-0.7-0.7-0.7-1.3c0-0.6,0.4-1.1,0.9-1.4v-0.1
	c-1.2-0.9-1.3-2.6-0.4-3.8c0.5-0.7,1.4-1,2.2-1c0.4,0,0.7,0.1,1.1,0.2h2.6v0.9h-1.6c0.4,0.4,0.7,1,0.7,1.6c0,1.4-1.1,2.6-2.6,2.7
	c-0.1,0-0.1,0-0.2,0c-0.4,0-0.8-0.1-1.2-0.3c-0.3,0.2-0.5,0.6-0.5,1c0,0.5,0.3,0.9,1.4,0.9h1.5c1.8,0,2.6,0.6,2.6,1.8
	s-1.5,2.6-3.8,2.6C91.6,181.2,90.4,180.4,90.4,179.1z M96.2,178.7c0-0.8-0.6-1-1.6-1h-1.4c-0.3,0-0.7,0-1-0.1
	c-0.5,0.3-0.8,0.8-0.8,1.4c0,0.9,0.9,1.4,2.3,1.4S96.2,179.6,96.2,178.7z M95.2,172.5c0.1-1-0.6-1.8-1.6-1.9c0,0-0.1,0-0.1,0
	c-0.9,0-1.7,0.8-1.7,1.7c0,0.1,0,0.1,0,0.2c-0.1,0.9,0.6,1.8,1.6,1.8c0.9,0.1,1.8-0.6,1.8-1.6C95.2,172.7,95.2,172.6,95.2,172.5
	L95.2,172.5z"/>
<path class="st0" d="M106.5,176.8l0.6-0.8c0.6,0.6,1.5,0.9,2.3,0.9c1.1,0,1.6-0.6,1.6-1.3s-0.9-1.2-1.8-1.5
	c-1.1-0.4-2.3-0.9-2.3-2.2s0.9-2.1,2.6-2.1c0.8,0,1.7,0.3,2.3,0.9l-0.6,0.7c-0.5-0.4-1.1-0.6-1.8-0.7c-1,0-1.5,0.5-1.5,1.2
	s0.9,1.1,1.7,1.4c1.1,0.4,2.4,0.9,2.4,2.3c0,1.2-1,2.2-2.7,2.2C108.3,177.8,107.3,177.4,106.5,176.8z"/>
<path class="st0" d="M116.7,170h0.9l0.1,0.9l0,0c0.7-0.6,1.5-1,2.5-1.1c2,0,3.1,1.5,3.1,3.9c0,2.6-1.6,4.1-3.3,4.1
	c-0.8,0-1.6-0.4-2.1-0.9v1.3v2.6h-1.1L116.7,170z M122.1,173.7c0-1.7-0.6-2.9-2.1-2.9c-0.8,0.1-1.6,0.5-2.1,1.1v4.1
	c0.5,0.5,1.2,0.8,1.9,0.8C121.1,176.8,122.1,175.6,122.1,173.7L122.1,173.7z"/>
<path class="st0" d="M127.6,175.7c0-1.7,1.5-2.5,4.7-2.9c0-1-0.3-2.1-1.6-2.1c-0.8,0-1.7,0.3-2.3,0.9l-0.5-0.8c0.9-0.6,1.9-1,3-1
	c1.9,0,2.6,1.3,2.6,3.1v4.7h-1l-0.1-0.9l0,0c-0.7,0.7-1.6,1.1-2.6,1.1c-1.1,0.1-2.1-0.7-2.2-1.9
	C127.6,175.9,127.6,175.8,127.6,175.7z M132.4,175.8v-2.2c-2.7,0.3-3.6,1-3.6,2s0.6,1.3,1.4,1.3C131,176.8,131.8,176.4,132.4,175.8
	L132.4,175.8z"/>
<path class="st0" d="M138.1,173.8c-0.2-2,1.3-3.8,3.4-4c0.1,0,0.2,0,0.3,0c0.8,0,1.6,0.3,2.2,0.9l-0.6,0.8c-0.4-0.4-1-0.7-1.6-0.7
	c-1.4,0-2.5,1.2-2.5,3.1s1,3,2.5,3c0.7,0,1.3-0.3,1.9-0.8l0.5,0.8c-0.7,0.6-1.5,1-2.5,1C139.7,177.8,138.1,176.4,138.1,173.8z"/>
<path class="st0" d="M148,173.8c0-2.5,1.7-4,3.4-4c1.9,0,3,1.4,3,3.6c0,0.2,0,0.5-0.1,0.7h-5.2c-0.1,1.5,1,2.7,2.4,2.8
	c0.1,0,0.1,0,0.2,0c0.7,0,1.4-0.2,1.9-0.6l0.4,0.8c-0.7,0.5-1.6,0.8-2.5,0.8C149.6,177.8,148,176.3,148,173.8z M153.4,173.2
	c0-1.6-0.7-2.5-2-2.5c-1.3,0.1-2.3,1.2-2.3,2.5H153.4z"/>
<path class="st1" d="M77.4,0.2L0.3,77.3l77.1,77.1l77.1-77.1L77.4,0.2z M77.4,8.5l68.8,68.8l-52.3,52.3l-4.1-4.1l-12.3,12.3
	L65,125.5l-4.1,4.1L8.6,77.3L77.4,8.5z"/>
<rect x="53.1" y="53" transform="matrix(0.7071 -0.7071 0.7071 0.7071 -32.0021 77.35)" class="st1" width="48.6" height="48.6"/>
<polygon class="st1" points="77.4,118.6 57.3,98.5 51.1,104.6 77.4,130.9 103.7,104.6 97.5,98.5 "/>
</svg>
