<?xml version="1.0" encoding="utf-8"?>
<!-- Generator: Adobe Illustrator 22.0.1, SVG Export Plug-In . SVG Version: 6.00 Build 0)  -->
<svg version="1.1" id="レイヤー_1" xmlns="http://www.w3.org/2000/svg" xmlns:xlink="http://www.w3.org/1999/xlink" x="0px"
	 y="0px" viewBox="0 0 391.5 113.5" style="enable-background:new 0 0 391.5 113.5;" xml:space="preserve">
<style type="text/css">
	.st0{fill:#FFFFFF;}
	.st1{fill:#009544;}
</style>
<title>mb-logo-horizontal</title>
<path class="st0" d="M133.3,56.2h2.8l7.2,20.5c0.9,2.5,1.9,5.1,2.8,7.7h0.2c0.9-2.6,1.8-5.1,2.7-7.7l7.3-20.5h2.8v34h-1.7V66.7
	c0-2.7,0.1-6.1,0.2-8.9h-0.2l-2.6,7.4l-7.6,21.1h-1.8l-7.7-21.1l-2.7-7.5h-0.2c0.1,2.8,0.2,6.2,0.2,8.9v23.5h-1.6L133.3,56.2z"/>
<path class="st0" d="M172.9,56.2h1.8v34h-1.7L172.9,56.2z"/>
<path class="st0" d="M207.3,90.1l-9.6-16h-7.5v16h-1.7V56.2h9.4c6.7,0,11,2.5,11,8.7c0,5.5-3.5,8.6-9.1,9.1l9.6,16.1L207.3,90.1z
	 M197.3,72.6c6.2,0,9.7-2.5,9.7-7.7s-3.5-7.2-9.7-7.2h-7.1v14.9H197.3z"/>
<path class="st0" d="M234.7,78h-13.8l-4.2,12.1h-1.7l12.1-34h1.5l12.2,34h-1.9L234.7,78z M234.2,76.5l-2.3-6.8
	c-1.5-4.1-2.6-7.6-3.9-11.8h-0.2c-1.3,4.3-2.5,7.7-3.9,11.8l-2.4,6.8H234.2z"/>
<path class="st0" d="M249.9,56.2h1.7v34h-1.7L249.9,56.2z"/>
<path class="st0" d="M279.3,56.2h8.9c6.8,0,11.1,2.6,11.1,8.2c0.2,3.4-2.1,6.5-5.4,7.4V72c4.5,0.7,7.5,3.5,7.5,8.2
	c0,6.5-4.9,9.9-12.6,9.9h-9.5V56.2z M287.2,71.2c7.4,0,10.3-2.5,10.3-6.7c0-5-3.4-6.8-10-6.8H281v13.6H287.2z M288.2,88.5
	c7.1,0,11.5-2.5,11.5-8.2c0-5.2-4.2-7.6-11.5-7.6H281v15.8L288.2,88.5z"/>
<path class="st0" d="M327.5,78h-13.8l-4.3,12.1h-1.7l12.1-34h1.5l12.2,34h-1.9L327.5,78z M327,76.5l-2.4-6.8
	c-1.5-4.1-2.6-7.6-3.9-11.8h-0.1c-1.3,4.3-2.5,7.7-3.9,11.8l-2.4,6.8H327z"/>
<path class="st0" d="M340.2,85.6l1.2-1.2c2.5,3,6.2,4.7,10.1,4.7c5.4,0,8.9-3,8.9-7.2c0-4.5-2.9-5.9-6.3-7.5l-5.2-2.3
	c-3-1.3-6.9-3.3-6.9-8.3s4.1-8.2,9.6-8.2c3.5,0,6.9,1.4,9.3,4l-1.1,1.2c-2.1-2.3-5.1-3.5-8.1-3.5c-4.7,0-7.9,2.5-7.9,6.4
	c0,4.2,3.6,5.8,5.9,6.9l5.2,2.3c3.8,1.7,7.2,3.8,7.2,9s-4.2,9-10.6,9C347.2,90.8,343,88.9,340.2,85.6z"/>
<path class="st0" d="M373,56.2h18.2v1.6h-16.6v13.4h13.9v1.5h-13.9v15.8h17v1.6H373V56.2z"/>
<path class="st0" d="M133.5,33.7c0-3.7,2.4-5.8,5.1-5.8c1.2,0,2.4,0.5,3.2,1.3l-0.7,0.8c-0.7-0.7-1.6-1.1-2.5-1.1
	c-2.2,0-3.8,1.9-3.8,4.7s1.5,4.7,3.8,4.7c1.1,0,2.1-0.5,2.9-1.2L142,38c-1,0.9-2.2,1.4-3.5,1.4C135.6,39.4,133.5,37.3,133.5,33.7z"
	/>
<path class="st0" d="M150.2,33.7c0-3.7,2.3-5.8,4.9-5.8s5,2.1,5,5.8s-2.3,5.7-5,5.7S150.2,37.3,150.2,33.7z M158.8,33.7
	c0-2.8-1.6-4.7-3.7-4.7s-3.7,1.9-3.7,4.7s1.6,4.7,3.7,4.7S158.8,36.5,158.8,33.7z"/>
<path class="st0" d="M168.6,33h5v1h-5V33z"/>
<path class="st0" d="M181.5,28.2h1.3l1.9,7c0.2,1,0.5,2,0.7,3h0.1c0.3-1,0.5-2,0.8-3l1.9-6.9h1.3l1.9,6.9c0.3,1,0.5,2,0.8,3h0.1
	c0.2-1,0.5-1.9,0.8-3l1.9-6.9h1.2l-3.1,11h-1.5l-1.9-6.7c-0.3-1-0.5-2.1-0.8-3.1h-0.1c-0.2,1.1-0.5,2.1-0.8,3.2l-1.8,6.6h-1.5
	L181.5,28.2z"/>
<path class="st0" d="M204.3,33.7c0-3.7,2.3-5.8,4.9-5.8s5,2.1,5,5.8s-2.3,5.7-5,5.7S204.3,37.3,204.3,33.7z M213,33.7
	c0-2.8-1.6-4.7-3.7-4.7s-3.7,1.9-3.7,4.7s1.6,4.7,3.7,4.7S213,36.5,213,33.7L213,33.7z"/>
<path class="st0" d="M223.9,28.2h1l0.1,2l0,0c0.5-1.3,1.7-2.2,3.1-2.3c0.4,0,0.8,0.1,1.1,0.2l-0.2,1.1c-0.3-0.1-0.7-0.2-1-0.2
	c-1,0-2.1,0.7-2.9,2.7v7.4h-1.2L223.9,28.2z"/>
<path class="st0" d="M237.7,22.8h1.2v11.8l0,0l5.2-6.5h1.4l-3.6,4.3l4.2,6.6h-1.3l-3.5-5.8l-2.4,2.8v3h-1.2V22.8z"/>
<path class="st0" d="M254.5,24.7c0-0.6,0.4-1,1-1c0.5-0.1,1.1,0.2,1.2,0.7s-0.2,1.1-0.7,1.2c-0.2,0-0.4,0-0.5,0
	C255,25.6,254.5,25.2,254.5,24.7z M254.9,28.2h1.2v11h-1.2V28.2z"/>
<path class="st0" d="M266.7,28.2h1l0.1,1.7h0c0.9-1.2,2.3-1.9,3.7-2c2.3,0,3.3,1.4,3.3,4.2v7h-1.2v-6.8c0-2.3-0.7-3.3-2.4-3.3
	c-1.3,0-2.2,0.7-3.5,2v8.2h-1.1V28.2z"/>
<path class="st0" d="M284.3,41.4c0.1-1.1,0.7-2.1,1.6-2.6v-0.1c-0.6-0.4-1-1-1-1.8c0.1-0.8,0.5-1.5,1.2-2v-0.1
	c-0.9-0.8-1.4-1.8-1.4-3c0-2.1,1.7-3.9,3.8-3.9c0.1,0,0.1,0,0.2,0c0.5,0,1,0.1,1.5,0.3h3.7v1h-2.5c0.7,0.7,1.1,1.6,1.1,2.6
	c0.1,2.1-1.6,3.8-3.7,3.9c-0.1,0-0.1,0-0.2,0c-0.6,0-1.2-0.2-1.8-0.5c-0.5,0.3-0.8,0.9-0.9,1.5c0,0.8,0.5,1.4,2,1.4h2.3
	c2.5,0,3.7,0.8,3.7,2.5c0,1.9-2.1,3.7-5.3,3.7C286.1,44.4,284.3,43.2,284.3,41.4z M292.9,40.8c0-1.2-0.9-1.6-2.5-1.6h-2.2
	c-0.5,0-0.9-0.1-1.4-0.2c-0.8,0.5-1.3,1.3-1.4,2.2c0,1.3,1.3,2.2,3.5,2.2S292.9,42.2,292.9,40.8z M291.4,31.8
	c0.1-1.5-1.1-2.8-2.6-2.9c-1.5-0.1-2.8,1.1-2.9,2.6c0,0.1,0,0.2,0,0.3c-0.2,1.5,0.9,2.9,2.4,3s2.9-0.9,3-2.4
	C291.5,32.2,291.5,32,291.4,31.8z"/>
<path class="st0" d="M312.5,37.9l0.6-0.9c0.9,0.9,2.2,1.4,3.5,1.4c1.7,0,2.5-1,2.5-2.1c0-1.3-1.4-1.9-2.6-2.3
	c-1.6-0.6-3.4-1.2-3.4-3.1c0-1.6,1.3-3,3.6-3c1.2,0,2.3,0.4,3.2,1.2l-0.6,0.8c-0.7-0.6-1.7-1-2.6-1c-1.6,0-2.4,0.9-2.4,1.9
	c0,1.2,1.3,1.7,2.5,2.1c1.7,0.6,3.5,1.2,3.5,3.3c0,1.7-1.3,3.1-3.8,3.1C315.1,39.4,313.7,38.9,312.5,37.9z"/>
<path class="st0" d="M329.7,28.2h1l0.1,1.3l0,0c1-0.9,2.3-1.5,3.7-1.6c2.9,0,4.4,2.2,4.4,5.6c0,3.7-2.3,5.9-4.8,5.9
	c-1.2-0.1-2.3-0.5-3.2-1.3v2v4h-1.1V28.2z M337.7,33.5c0-2.6-0.9-4.5-3.4-4.5c-1.3,0.2-2.5,0.8-3.4,1.7V37c0.8,0.8,1.9,1.3,3.1,1.3
	C336.1,38.4,337.6,36.5,337.7,33.5L337.7,33.5z"/>
<path class="st0" d="M347.8,36.4c0-2.4,2.1-3.6,7-4.1c0-1.6-0.4-3.3-2.5-3.3c-1.3,0-2.5,0.5-3.5,1.3l-0.5-0.9
	c1.2-0.9,2.7-1.4,4.1-1.4c2.6,0,3.5,1.9,3.5,4.3v7h-1l-0.1-1.4l0,0c-1,1-2.4,1.6-3.8,1.7c-1.6,0.2-3-0.9-3.2-2.5
	C347.8,36.8,347.7,36.6,347.8,36.4z M354.8,36.7v-3.5c-4.3,0.5-5.8,1.5-5.8,3.2c-0.1,1.1,0.8,2,1.9,2.1c0.1,0,0.2,0,0.3,0
	C352.6,38.3,353.8,37.7,354.8,36.7L354.8,36.7z"/>
<path class="st0" d="M365.3,33.7c0-3.7,2.4-5.8,5.1-5.8c1.2,0,2.4,0.5,3.2,1.3l-0.7,0.8c-0.7-0.7-1.6-1.1-2.5-1.1
	c-2.2,0-3.8,1.9-3.8,4.7s1.5,4.7,3.8,4.7c1.1,0,2.1-0.5,2.9-1.2l0.6,0.8c-1,0.9-2.2,1.4-3.5,1.4C367.5,39.4,365.3,37.3,365.3,33.7z"
	/>
<path class="st0" d="M382,33.7c0-3.5,2.3-5.8,4.8-5.8c2.6,0,4.2,1.9,4.2,5.1c0,0.3,0,0.6-0.1,0.9h-7.8c0.1,2.7,1.6,4.5,4,4.5
	c1.1,0,2.1-0.4,2.9-1l0.5,0.9c-1,0.7-2.2,1.1-3.5,1.1C384.3,39.4,382,37.3,382,33.7z M390,32.9c0-2.7-1.2-4-3.1-4s-3.4,1.5-3.6,4
	H390z"/>
<path class="st1" d="M56.8,113.5L0.1,56.8L56.8,0.1l56.7,56.7L56.8,113.5z M6.2,56.8l50.6,50.6l50.6-50.6L56.8,6.2L6.2,56.8z"/>
<rect x="38.9" y="38.9" transform="matrix(0.7071 -0.7071 0.7071 0.7071 -23.509 56.7998)" class="st1" width="35.8" height="35.8"/>
<polygon class="st1" points="71.6,72.3 56.8,87.1 42,72.3 37.5,76.9 56.8,96.2 76.1,76.9 "/>
<polygon class="st1" points="65.9,92.2 56.8,101.3 47.7,92.2 43.2,96.8 56.8,110.4 70.4,96.8 "/>
</svg>
