<?xml version="1.0" encoding="utf-8"?>
<!-- Generator: Adobe Illustrator 22.0.1, SVG Export Plug-In . SVG Version: 6.00 Build 0)  -->
<svg version="1.1" id="レイヤー_1" xmlns="http://www.w3.org/2000/svg" xmlns:xlink="http://www.w3.org/1999/xlink" x="0px"
	 y="0px" viewBox="0 0 154.4 204.5" style="enable-background:new 0 0 154.4 204.5;" xml:space="preserve">
<style type="text/css">
	.st0{fill:#231815;}
	.st1{fill:#009544;}
</style>
<title>mb-logo-vartical</title>
<path class="st0" d="M0.1,185.2h2.1l4,11.1l1.5,4.2h0.1c0.5-1.4,0.9-2.8,1.4-4.2l4-11.1h2.1v19.2h-1.5v-12.2c0-1.6,0.1-3.7,0.2-5.3
	h-0.1l-1.6,4.3l-4,11.1H7L3,191.2l-1.5-4.3H1.4c0.1,1.6,0.2,3.7,0.2,5.3v12.2H0.1V185.2z"/>
<path class="st0" d="M23.4,185.2H25v19.2h-1.6V185.2z"/>
<path class="st0" d="M43.8,204.4l-5.1-8.7h-3.9v8.7h-1.6v-19.2h5.6c3.8,0,6.4,1.4,6.4,5.1c0,3.1-1.9,4.8-4.8,5.3l5.2,8.8L43.8,204.4
	z M34.8,194.4h3.7c3.3,0,5.2-1.3,5.2-4.1s-1.8-3.8-5.2-3.8h-3.7L34.8,194.4z"/>
<path class="st0" d="M60.5,197.9H53l-2.2,6.5h-1.6l6.7-19.2h1.6l6.7,19.2h-1.7L60.5,197.9z M60,196.7l-1.2-3.5
	c-0.8-2.2-1.4-4.3-2.1-6.6h-0.1c-0.7,2.3-1.3,4.4-2.1,6.6l-1.2,3.5L60,196.7z"/>
<path class="st0" d="M69.8,185.2h1.6v19.2h-1.6V185.2z"/>
<path class="st0" d="M88,185.2h5.3c3.9,0,6.4,1.4,6.4,4.7c0.1,1.9-1.1,3.7-3,4.2v0.1c2.5,0.4,4.1,2,4.1,4.6c0,3.7-2.9,5.6-7.2,5.6
	H88L88,185.2z M92.8,193.6c3.8,0,5.3-1.4,5.3-3.5c0-2.6-1.8-3.6-5.2-3.6h-3.4v7.1L92.8,193.6z M93.3,203.1c3.7,0,6-1.3,6-4.3
	c0-2.7-2.2-4-6-4h-3.7v8.3L93.3,203.1z"/>
<path class="st0" d="M116.2,197.9h-7.5l-2.2,6.5h-1.6l6.7-19.2h1.6l6.7,19.2h-1.7L116.2,197.9z M115.8,196.7l-1.2-3.5
	c-0.8-2.2-1.4-4.3-2.1-6.6h-0.1c-0.7,2.3-1.3,4.4-2.1,6.6l-1.2,3.5L115.8,196.7z"/>
<path class="st0" d="M124.1,201.9l1-1.1c1.4,1.6,3.4,2.5,5.6,2.6c2.9,0,4.6-1.5,4.6-3.7s-1.5-3.1-3.4-3.9l-2.9-1.3
	c-1.7-0.8-3.9-2-3.9-4.8s2.4-4.8,5.7-4.8c2.1,0,4,0.8,5.4,2.3l-0.9,1c-1.2-1.2-2.8-1.9-4.5-1.9c-2.4,0-4.1,1.3-4.1,3.3
	c0,2.2,1.9,3,3.3,3.6l2.9,1.3c2.2,1,4,2.2,4,5.1s-2.4,5.2-6.2,5.2C128.2,204.7,125.8,203.7,124.1,201.9z"/>
<path class="st0" d="M143.4,185.2h10.6v1.4H145v7h7.6v1.3H145v8.1h9.3v1.4h-10.9V185.2z"/>
<path class="st0" d="M0.1,173.6c-0.2-2,1.3-3.8,3.4-4c0.1,0,0.2,0,0.3,0c0.8,0,1.6,0.3,2.2,0.9l-0.6,0.8c-0.4-0.4-1-0.7-1.6-0.7
	c-1.4,0-2.5,1.2-2.5,3.1s1,3,2.5,3c0.7,0,1.4-0.3,1.9-0.8l0.5,0.8c-0.7,0.6-1.5,1-2.5,1C1.7,177.6,0.1,176.1,0.1,173.6z"/>
<path class="st0" d="M10,173.6c0-2.6,1.6-4,3.5-4s3.5,1.5,3.5,4s-1.7,4-3.5,4S10,176.1,10,173.6z M15.9,173.6c0-1.8-1-3.1-2.3-3.1
	s-2.3,1.2-2.3,3.1s1,3,2.3,3S15.9,175.4,15.9,173.6z"/>
<path class="st0" d="M21.2,173h3.6v0.9h-3.6V173z"/>
<path class="st0" d="M28.5,169.8h1.2l1.2,4.6c0.2,0.7,0.3,1.4,0.5,2.1h0.1c0.2-0.7,0.3-1.4,0.5-2.1l1.2-4.6h1.2l1.2,4.6
	c0.2,0.7,0.3,1.4,0.5,2.1h0.1c0.2-0.7,0.3-1.4,0.5-2.1l1.2-4.6h1.1l-2.1,7.6h-1.4l-1.2-4.2c-0.2-0.7-0.4-1.4-0.5-2.2h-0.1
	c-0.2,0.8-0.3,1.5-0.6,2.2l-1.1,4.2h-1.4L28.5,169.8z"/>
<path class="st0" d="M42.7,173.6c0-2.6,1.6-4,3.5-4s3.5,1.5,3.5,4s-1.7,4-3.5,4S42.7,176.1,42.7,173.6z M48.6,173.6
	c0-1.8-1-3.1-2.3-3.1s-2.3,1.2-2.3,3.1s1,3,2.3,3S48.6,175.4,48.6,173.6z"/>
<path class="st0" d="M54.6,169.8h0.9l0.1,1.4l0,0c0.4-0.9,1.2-1.5,2.2-1.6c0.3,0,0.6,0,0.8,0.2l-0.2,1c-0.2-0.1-0.5-0.1-0.7-0.1
	c-0.7,0-1.4,0.5-2,1.8v5h-1.1V169.8z"/>
<path class="st0" d="M62.6,166.2h1.1v7.8l0,0l3.4-4.2h1.3l-2.6,3.1l2.9,4.6h-1.2l-2.3-3.8l-1.5,1.8v2h-1.1L62.6,166.2z"/>
<path class="st0" d="M72.8,167.3c0-0.4,0.3-0.8,0.7-0.8c0,0,0.1,0,0.1,0c0.4,0,0.8,0.3,0.8,0.7c0,0,0,0,0,0.1c0,0.4-0.4,0.8-0.8,0.8
	c0,0,0,0,0,0C73.2,168.2,72.8,167.8,72.8,167.3C72.8,167.4,72.8,167.4,72.8,167.3z M73,169.8h1.1v7.6H73V169.8z"/>
<path class="st0" d="M79.6,169.8h0.9l0.1,1.1l0,0c0.6-0.8,1.6-1.2,2.6-1.3c1.6,0,2.3,1,2.3,3v4.9h-1.2v-4.7c0-1.5-0.4-2.1-1.5-2.1
	c-0.9,0.1-1.7,0.5-2.2,1.2v5.6h-1.1V169.8z"/>
<path class="st0" d="M90.2,178.9c0.1-0.7,0.5-1.4,1.1-1.7l0,0c-0.4-0.3-0.7-0.7-0.7-1.3c0-0.6,0.4-1.1,0.9-1.4v-0.1
	c-1.2-0.9-1.3-2.6-0.4-3.8c0.5-0.7,1.4-1,2.2-1c0.4,0,0.7,0.1,1.1,0.2h2.6v0.9h-1.6c0.4,0.4,0.7,1,0.7,1.6c0,1.4-1.1,2.6-2.6,2.7
	c-0.1,0-0.1,0-0.2,0c-0.4,0-0.8-0.1-1.2-0.3c-0.3,0.2-0.5,0.6-0.5,1c0,0.5,0.3,0.9,1.4,0.9h1.5c1.8,0,2.6,0.6,2.6,1.8
	s-1.5,2.6-3.8,2.6C91.5,181,90.2,180.2,90.2,178.9z M96.1,178.5c0-0.8-0.6-1-1.6-1h-1.4c-0.3,0-0.7,0-1-0.1
	c-0.5,0.3-0.8,0.8-0.8,1.4c0,0.9,0.9,1.4,2.3,1.4S96.1,179.3,96.1,178.5z M95.1,172.3c0.1-1-0.6-1.8-1.6-1.9c0,0-0.1,0-0.1,0
	c-0.9,0-1.7,0.8-1.7,1.7c0,0.1,0,0.1,0,0.2c-0.1,0.9,0.6,1.8,1.6,1.8c0.9,0.1,1.8-0.6,1.8-1.6C95.1,172.5,95.1,172.4,95.1,172.3
	L95.1,172.3z"/>
<path class="st0" d="M106.4,176.5l0.6-0.8c0.6,0.6,1.5,0.9,2.3,0.9c1.1,0,1.6-0.6,1.6-1.3s-0.9-1.2-1.8-1.5
	c-1.1-0.4-2.3-0.9-2.3-2.2s0.9-2.1,2.6-2.1c0.8,0,1.7,0.3,2.3,0.9l-0.6,0.7c-0.5-0.4-1.1-0.6-1.8-0.7c-1,0-1.5,0.5-1.5,1.2
	s0.9,1.1,1.7,1.4c1.1,0.4,2.4,0.9,2.4,2.3c0,1.2-1,2.2-2.7,2.2C108.2,177.6,107.2,177.2,106.4,176.5z"/>
<path class="st0" d="M116.6,169.8h0.9l0.1,0.9l0,0c0.7-0.6,1.5-1,2.5-1.1c2,0,3.1,1.5,3.1,3.9c0,2.6-1.6,4.1-3.3,4.1
	c-0.8,0-1.6-0.4-2.1-0.9v1.3v2.6h-1.1L116.6,169.8z M122,173.5c0-1.7-0.6-2.9-2.1-2.9c-0.8,0.1-1.6,0.5-2.1,1.1v4.1
	c0.5,0.5,1.2,0.8,1.9,0.8C121,176.6,122,175.4,122,173.5L122,173.5z"/>
<path class="st0" d="M127.5,175.4c0-1.7,1.5-2.5,4.7-2.9c0-1-0.3-2.1-1.6-2.1c-0.8,0-1.7,0.3-2.3,0.9l-0.5-0.8c0.9-0.6,1.9-1,3-1
	c1.9,0,2.6,1.3,2.6,3.1v4.7h-1l-0.1-0.9l0,0c-0.7,0.7-1.6,1.1-2.6,1.1c-1.1,0.1-2.1-0.7-2.2-1.9
	C127.5,175.6,127.5,175.5,127.5,175.4z M132.2,175.6v-2.2c-2.7,0.3-3.6,1-3.6,2s0.6,1.3,1.4,1.3
	C130.9,176.6,131.7,176.2,132.2,175.6L132.2,175.6z"/>
<path class="st0" d="M138,173.6c-0.2-2,1.3-3.8,3.4-4c0.1,0,0.2,0,0.3,0c0.8,0,1.6,0.3,2.2,0.9l-0.6,0.8c-0.4-0.4-1-0.7-1.6-0.7
	c-1.4,0-2.5,1.2-2.5,3.1s1,3,2.5,3c0.7,0,1.3-0.3,1.9-0.8l0.5,0.8c-0.7,0.6-1.5,1-2.5,1C139.6,177.6,138,176.1,138,173.6z"/>
<path class="st0" d="M147.9,173.6c0-2.5,1.7-4,3.4-4c1.9,0,3,1.4,3,3.6c0,0.2,0,0.5-0.1,0.7H149c-0.1,1.5,1,2.7,2.4,2.8
	c0.1,0,0.1,0,0.2,0c0.7,0,1.4-0.2,1.9-0.6l0.4,0.8c-0.7,0.5-1.6,0.8-2.5,0.8C149.5,177.6,147.9,176.1,147.9,173.6z M153.3,173
	c0-1.6-0.7-2.5-2-2.5c-1.3,0.1-2.3,1.2-2.3,2.5H153.3z"/>
<path class="st1" d="M77.2,0L0.1,77.1l77.1,77.1l77.1-77.1L77.2,0z M77.2,8.3L146,77.1l-52.3,52.3l-4.1-4.1l-12.3,12.3l-12.3-12.3
	l-4.1,4.1L8.5,77.1L77.2,8.3z"/>
<rect x="52.9" y="52.8" transform="matrix(0.7071 -0.7071 0.7071 0.7071 -31.877 77.1911)" class="st1" width="48.6" height="48.6"/>
<polygon class="st1" points="77.2,118.3 57.1,98.2 50.9,104.4 77.2,130.7 103.5,104.4 97.3,98.2 "/>
</svg>
