<?xml version="1.0" encoding="utf-8"?>
<!-- Generator: Adobe Illustrator 22.0.1, SVG Export Plug-In . SVG Version: 6.00 Build 0)  -->
<svg version="1.1" id="レイヤー_1" xmlns="http://www.w3.org/2000/svg" xmlns:xlink="http://www.w3.org/1999/xlink" x="0px"
	 y="0px" viewBox="0 0 391.6 113.6" style="enable-background:new 0 0 391.6 113.6;" xml:space="preserve">
<style type="text/css">
	.st0{fill:#009544;}
</style>
<title>mb-logo-horizontal</title>
<path class="st0" d="M133.2,56.1h2.8l7.2,20.5c0.9,2.5,1.9,5.1,2.8,7.7h0.2c0.9-2.6,1.8-5.1,2.7-7.7l7.3-20.5h2.8v34h-1.7V66.6
	c0-2.7,0.1-6.1,0.2-8.9h-0.2l-2.6,7.4L147,86.3h-1.8l-7.7-21.1l-2.7-7.5h-0.2c0.1,2.8,0.2,6.2,0.2,8.9V90h-1.6L133.2,56.1z"/>
<path class="st0" d="M172.8,56.1h1.8v34h-1.7L172.8,56.1z"/>
<path class="st0" d="M207.2,90.1l-9.6-16h-7.5v16h-1.7V56.1h9.4c6.7,0,11,2.5,11,8.8c0,5.5-3.5,8.6-9.1,9.1l9.6,16.1L207.2,90.1z
	 M197.1,72.6c6.2,0,9.7-2.5,9.7-7.7s-3.5-7.2-9.7-7.2h-7.1v14.9H197.1z"/>
<path class="st0" d="M234.5,78h-13.8l-4.2,12.1h-1.7l12.1-34h1.5l12.2,34h-1.9L234.5,78z M234,76.5l-2.3-6.8
	c-1.5-4.1-2.6-7.6-3.9-11.8h-0.2c-1.3,4.3-2.5,7.7-3.9,11.8l-2.4,6.8H234z"/>
<path class="st0" d="M249.8,56.1h1.7v34h-1.7L249.8,56.1z"/>
<path class="st0" d="M279.2,56.1h8.9c6.8,0,11.1,2.6,11.1,8.2c0.2,3.4-2.1,6.5-5.4,7.4V72c4.5,0.7,7.5,3.5,7.5,8.2
	c0,6.5-4.9,9.9-12.6,9.9h-9.5V56.1z M287.1,71.1c7.4,0,10.3-2.5,10.3-6.7c0-5-3.4-6.8-10-6.8h-6.5v13.6H287.1z M288.1,88.5
	c7.1,0,11.5-2.5,11.5-8.2c0-5.2-4.2-7.6-11.5-7.6h-7.2v15.8L288.1,88.5z"/>
<path class="st0" d="M327.4,78h-13.8l-4.3,12.1h-1.7l12.1-34h1.5l12.2,34h-1.9L327.4,78z M326.9,76.5l-2.4-6.8
	c-1.5-4.1-2.6-7.6-3.9-11.8h-0.1c-1.3,4.3-2.5,7.7-3.9,11.8l-2.4,6.8H326.9z"/>
<path class="st0" d="M340,85.5l1.2-1.2c2.5,3,6.2,4.7,10.1,4.7c5.4,0,8.9-3,8.9-7.2c0-4.5-2.9-5.9-6.3-7.5l-5.2-2.3
	c-3-1.3-6.9-3.3-6.9-8.3s4.1-8.2,9.6-8.2c3.5,0,6.9,1.4,9.3,4l-1.1,1.2c-2.1-2.3-5.1-3.5-8.1-3.5c-4.7,0-7.9,2.5-7.9,6.4
	c0,4.3,3.6,5.8,5.9,6.9l5.2,2.3c3.8,1.7,7.2,3.8,7.2,9s-4.2,9-10.6,9C347,90.8,342.8,88.9,340,85.5z"/>
<path class="st0" d="M372.9,56.1h18.2v1.6h-16.6v13.5h13.9v1.5h-13.9v15.8h17v1.6h-18.7V56.1z"/>
<path class="st0" d="M133.3,33.7c0-3.6,2.4-5.8,5.1-5.8c1.2,0,2.4,0.5,3.2,1.3l-0.7,0.8c-0.7-0.7-1.6-1.1-2.5-1.1
	c-2.2,0-3.8,1.9-3.8,4.7s1.5,4.7,3.8,4.7c1.1,0,2.1-0.5,2.9-1.2l0.6,0.8c-1,0.9-2.2,1.4-3.5,1.4C135.5,39.4,133.3,37.3,133.3,33.7z"
	/>
<path class="st0" d="M150,33.7c0-3.6,2.3-5.8,4.9-5.8s5,2.1,5,5.8s-2.3,5.7-5,5.7S150,37.3,150,33.7z M158.7,33.7
	c0-2.8-1.6-4.7-3.7-4.7s-3.7,1.9-3.7,4.7s1.6,4.7,3.7,4.7S158.7,36.5,158.7,33.7z"/>
<path class="st0" d="M168.5,33h5v1h-5V33z"/>
<path class="st0" d="M181.4,28.2h1.3l1.9,6.9c0.2,1,0.5,2,0.7,3h0.1c0.3-1,0.5-2,0.8-3l1.9-6.9h1.3l1.9,6.9c0.3,1,0.5,2,0.8,3h0.1
	c0.2-1,0.5-1.9,0.8-3l1.9-6.9h1.2l-3.1,11h-1.5l-1.9-6.7c-0.3-1-0.5-2.1-0.8-3.1h-0.1c-0.2,1.1-0.5,2.1-0.8,3.2l-1.8,6.6h-1.5
	L181.4,28.2z"/>
<path class="st0" d="M204.2,33.7c0-3.6,2.3-5.8,4.9-5.8s5,2.1,5,5.8s-2.3,5.7-5,5.7S204.2,37.3,204.2,33.7z M212.9,33.7
	c0-2.8-1.6-4.7-3.7-4.7s-3.7,1.9-3.7,4.7s1.6,4.7,3.7,4.7S212.9,36.5,212.9,33.7L212.9,33.7z"/>
<path class="st0" d="M223.8,28.2h1l0.1,2l0,0c0.5-1.3,1.7-2.2,3.1-2.3c0.4,0,0.8,0.1,1.1,0.2l-0.2,1.1c-0.3-0.1-0.7-0.2-1-0.2
	c-1,0-2.1,0.7-2.9,2.7v7.4h-1.2L223.8,28.2z"/>
<path class="st0" d="M237.6,22.8h1.2v11.8l0,0l5.2-6.4h1.4l-3.6,4.3l4.2,6.6h-1.3l-3.5-5.8l-2.4,2.8v3h-1.2V22.8z"/>
<path class="st0" d="M254.4,24.7c0-0.6,0.4-1,1-1c0.5-0.1,1.1,0.2,1.2,0.7s-0.2,1.1-0.7,1.2c-0.2,0-0.4,0-0.5,0
	C254.8,25.6,254.4,25.2,254.4,24.7z M254.8,28.2h1.2v10.9h-1.2V28.2z"/>
<path class="st0" d="M266.5,28.2h1l0.1,1.7h0c0.9-1.2,2.3-1.9,3.7-2c2.3,0,3.3,1.4,3.3,4.2v7h-1.2v-6.8c0-2.3-0.7-3.3-2.4-3.3
	c-1.3,0-2.2,0.7-3.5,2v8.2h-1.1V28.2z"/>
<path class="st0" d="M284.2,41.4c0.1-1.1,0.7-2.1,1.6-2.6v-0.1c-0.6-0.4-1-1-1-1.8c0.1-0.8,0.5-1.5,1.2-2v-0.1
	c-0.9-0.8-1.4-1.8-1.4-3c0-2.1,1.7-3.9,3.8-3.9c0.1,0,0.1,0,0.2,0c0.5,0,1,0.1,1.5,0.3h3.7v1h-2.5c0.7,0.7,1.1,1.6,1.1,2.6
	c0.1,2.1-1.6,3.8-3.7,3.9c-0.1,0-0.1,0-0.2,0c-0.6,0-1.2-0.2-1.8-0.5c-0.5,0.3-0.8,0.9-0.9,1.5c0,0.8,0.5,1.4,2,1.4h2.3
	c2.5,0,3.7,0.8,3.7,2.5c0,1.9-2.1,3.7-5.3,3.7C286,44.4,284.2,43.2,284.2,41.4z M292.8,40.8c0-1.2-0.9-1.6-2.5-1.6h-2.2
	c-0.5,0-0.9-0.1-1.4-0.2c-0.8,0.5-1.3,1.3-1.4,2.2c0,1.3,1.3,2.2,3.5,2.2S292.8,42.1,292.8,40.8z M291.3,31.8
	c0.1-1.5-1.1-2.8-2.6-2.9c-1.5-0.1-2.8,1.1-2.9,2.6c0,0.1,0,0.2,0,0.3c-0.2,1.5,0.9,2.9,2.4,3s2.9-0.9,3-2.4
	C291.3,32.2,291.3,32,291.3,31.8z"/>
<path class="st0" d="M312.4,37.9l0.6-0.9c0.9,0.9,2.2,1.4,3.5,1.4c1.7,0,2.5-1,2.5-2.1c0-1.3-1.4-1.9-2.6-2.3
	c-1.6-0.6-3.4-1.2-3.4-3.1c0-1.6,1.3-3,3.6-3c1.2,0,2.3,0.4,3.2,1.2l-0.6,0.8c-0.7-0.6-1.7-1-2.6-1c-1.6,0-2.4,0.9-2.4,1.9
	c0,1.2,1.3,1.7,2.5,2.1c1.7,0.6,3.5,1.2,3.5,3.3c0,1.7-1.3,3.1-3.8,3.1C315,39.4,313.6,38.8,312.4,37.9z"/>
<path class="st0" d="M329.5,28.2h1l0.1,1.3l0,0c1-0.9,2.3-1.5,3.7-1.6c2.9,0,4.4,2.2,4.4,5.6c0,3.7-2.3,5.9-4.8,5.9
	c-1.2-0.1-2.3-0.5-3.2-1.3v2v4h-1.1V28.2z M337.5,33.5c0-2.6-0.9-4.5-3.4-4.5c-1.3,0.2-2.5,0.8-3.4,1.7V37c0.8,0.8,1.9,1.3,3.1,1.3
	C335.9,38.4,337.5,36.4,337.5,33.5L337.5,33.5z"/>
<path class="st0" d="M347.6,36.4c0-2.4,2.1-3.6,7-4.1c0-1.6-0.4-3.3-2.5-3.3c-1.3,0-2.5,0.5-3.5,1.3l-0.5-0.9
	c1.2-0.9,2.7-1.4,4.1-1.4c2.6,0,3.5,1.9,3.5,4.3v7h-1l-0.1-1.4l0,0c-1,1-2.4,1.6-3.8,1.7c-1.6,0.2-3-0.9-3.2-2.5
	C347.6,36.8,347.6,36.6,347.6,36.4z M354.6,36.7v-3.5c-4.3,0.5-5.8,1.5-5.8,3.2c-0.1,1.1,0.8,2,1.9,2.1c0.1,0,0.2,0,0.3,0
	C352.4,38.3,353.7,37.7,354.6,36.7L354.6,36.7z"/>
<path class="st0" d="M365.2,33.7c0-3.6,2.4-5.8,5.1-5.8c1.2,0,2.4,0.5,3.2,1.3l-0.7,0.8c-0.7-0.7-1.6-1.1-2.5-1.1
	c-2.2,0-3.8,1.9-3.8,4.7s1.5,4.7,3.8,4.7c1.1,0,2.1-0.5,2.9-1.2l0.6,0.8c-1,0.9-2.2,1.4-3.5,1.4C367.3,39.4,365.2,37.3,365.2,33.7z"
	/>
<path class="st0" d="M381.9,33.7c0-3.5,2.3-5.8,4.8-5.8c2.6,0,4.2,1.9,4.2,5.1c0,0.3,0,0.6-0.1,0.9h-7.8c0.1,2.7,1.6,4.5,4,4.5
	c1.1,0,2.1-0.4,2.9-1l0.5,0.9c-1,0.7-2.2,1.1-3.5,1.1C384.2,39.4,381.9,37.3,381.9,33.7z M389.8,32.9c0-2.6-1.2-4-3.1-4
	s-3.4,1.5-3.6,4H389.8z"/>
<path class="st0" d="M56.7,113.4L0,56.8L56.7,0.1l56.7,56.7L56.7,113.4z M6.1,56.8l50.6,50.6l50.6-50.6L56.7,6.1L6.1,56.8z"/>
<rect x="38.8" y="38.9" transform="matrix(0.7071 -0.7071 0.7071 0.7071 -23.528 56.7053)" class="st0" width="35.8" height="35.8"/>
<polygon class="st0" points="71.5,72.3 56.7,87.1 41.9,72.3 37.3,76.9 56.7,96.2 76,76.9 "/>
<polygon class="st0" points="65.8,92.2 56.7,101.3 47.6,92.2 43.1,96.7 56.7,110.4 70.3,96.7 "/>
</svg>
