<svg id="レイヤー_1" data-name="レイヤー 1" xmlns="http://www.w3.org/2000/svg" viewBox="0 0 496.05 179.52"><defs><style>.cls-1{fill:#231815;}.cls-2{fill:#009544;}</style></defs><title>mb-logo-horizontal</title><path class="cls-1" d="M172.68,90h2.76l7.25,20.5c.94,2.53,1.87,5.1,2.81,7.67h.19c.93-2.57,1.78-5.14,2.67-7.67l7.3-20.5h2.76v34h-1.73v-23.5c0-2.66.09-6.13.18-8.89h-.18L194.06,99l-7.62,21.11h-1.83L176.94,99l-2.67-7.49h-.19c.14,2.76.24,6.23.24,8.89v23.5h-1.64Z"/><path class="cls-1" d="M212.24,90H214v34h-1.73Z"/><path class="cls-1" d="M246.66,123.94l-9.6-16h-7.53v16H227.8V90h9.4c6.69,0,11,2.48,11,8.75,0,5.48-3.46,8.57-9.08,9.13l9.6,16.1Zm-10.07-17.51c6.23,0,9.69-2.48,9.69-7.72s-3.46-7.2-9.69-7.2h-7.06v14.92Z"/><path class="cls-1" d="M274,111.86H260.25L256,123.94h-1.74l12.13-34h1.54l12.17,34h-1.87Zm-.51-1.49-2.34-6.79c-1.45-4.12-2.62-7.58-3.88-11.84h-.19c-1.27,4.26-2.48,7.72-3.93,11.84l-2.39,6.79Z"/><path class="cls-1" d="M289.28,90H291v34h-1.73Z"/><path class="cls-1" d="M318.66,90h8.89c6.78,0,11.09,2.62,11.09,8.24a7.22,7.22,0,0,1-5.38,7.39v.24c4.49.7,7.49,3.51,7.49,8.23,0,6.46-4.87,9.88-12.59,9.88h-9.5ZM326.52,105c7.39,0,10.29-2.53,10.29-6.74,0-5-3.41-6.83-10-6.83h-6.46V105Zm1,17.36c7.07,0,11.46-2.52,11.46-8.23,0-5.15-4.21-7.59-11.46-7.59h-7.16v15.82Z"/><path class="cls-1" d="M366.88,111.86H353.12l-4.26,12.08h-1.73l12.12-34h1.54l12.17,34h-1.87Zm-.52-1.49L364,103.58c-1.45-4.12-2.62-7.58-3.88-11.84H360c-1.26,4.26-2.48,7.72-3.93,11.84l-2.39,6.79Z"/><path class="cls-1" d="M379.49,119.4l1.17-1.22a13.28,13.28,0,0,0,10.15,4.73c5.43,0,8.89-3,8.89-7.21,0-4.54-2.85-5.94-6.27-7.49l-5.19-2.34c-2.95-1.31-6.93-3.32-6.93-8.33s4.12-8.19,9.64-8.19a12.46,12.46,0,0,1,9.27,4l-1.08,1.17A11,11,0,0,0,391,91c-4.73,0-7.86,2.53-7.86,6.37,0,4.25,3.56,5.8,5.94,6.87l5.2,2.34c3.83,1.74,7.2,3.75,7.2,9s-4.21,9-10.62,9A14.47,14.47,0,0,1,379.49,119.4Z"/><path class="cls-1" d="M412.31,90h18.25v1.55H414V105h13.85v1.54H414v15.82h17v1.55H412.31Z"/><path class="cls-1" d="M172.79,67.53c0-3.65,2.36-5.77,5.07-5.77a4.64,4.64,0,0,1,3.21,1.34l-.68.82a3.59,3.59,0,0,0-2.51-1.11c-2.18,0-3.84,1.93-3.84,4.72s1.52,4.71,3.82,4.71A4.38,4.38,0,0,0,180.72,71l.57.83a5.28,5.28,0,0,1-3.49,1.41C174.94,73.26,172.79,71.17,172.79,67.53Z"/><path class="cls-1" d="M189.5,67.53c0-3.65,2.3-5.77,4.95-5.77s5,2.12,5,5.77-2.3,5.73-5,5.73S189.5,71.17,189.5,67.53Zm8.67,0c0-2.79-1.59-4.72-3.72-4.72s-3.7,1.93-3.7,4.72,1.56,4.71,3.7,4.71S198.17,70.33,198.17,67.53Z"/><path class="cls-1" d="M207.93,66.81h5v1h-5Z"/><path class="cls-1" d="M220.84,62.05h1.27L224,69c.25,1,.5,2,.7,3h.1c.27-1,.52-2,.79-3l1.95-6.9h1.31l1.95,6.9c.27,1,.52,2,.8,3h.08c.25-1,.5-1.93.77-3l1.86-6.9h1.18l-3.09,11h-1.54L229,66.4c-.3-1-.51-2.05-.82-3.14h-.1c-.25,1.09-.49,2.12-.84,3.18L225.48,73H224Z"/><path class="cls-1" d="M243.65,67.53c0-3.65,2.3-5.77,4.95-5.77s5,2.12,5,5.77-2.3,5.73-5,5.73S243.65,71.17,243.65,67.53Zm8.67,0c0-2.79-1.58-4.72-3.72-4.72s-3.7,1.93-3.7,4.72,1.56,4.71,3.7,4.71S252.32,70.33,252.32,67.53Z"/><path class="cls-1" d="M263.21,62.05h1l.14,2h0a3.78,3.78,0,0,1,3.11-2.32,2.1,2.1,0,0,1,1.1.25l-.24,1.07a2.25,2.25,0,0,0-1-.19c-1,0-2.13.72-2.93,2.75V73h-1.2Z"/><path class="cls-1" d="M277.05,56.67h1.19V68.5h0l5.24-6.45h1.35l-3.57,4.33L285.45,73h-1.32l-3.53-5.75L278.24,70v3h-1.19Z"/><path class="cls-1" d="M293.82,58.54a1,1,0,0,1,1-1,1,1,0,1,1,0,1.93A1,1,0,0,1,293.82,58.54Zm.39,3.51h1.19V73h-1.19Z"/><path class="cls-1" d="M306,62.05h1l.14,1.66h.05a5.36,5.36,0,0,1,3.73-2c2.28,0,3.33,1.42,3.33,4.23v7H313V66.16c0-2.28-.72-3.33-2.4-3.33-1.28,0-2.18.66-3.45,2V73H306Z"/><path class="cls-1" d="M323.66,75.21a3.32,3.32,0,0,1,1.64-2.6V72.5a2,2,0,0,1-1-1.76,2.73,2.73,0,0,1,1.21-2v-.08a4,4,0,0,1-1.4-3,3.83,3.83,0,0,1,3.93-3.88,3.9,3.9,0,0,1,1.45.29h3.74v1h-2.46a3.53,3.53,0,0,1,1.13,2.63,3.78,3.78,0,0,1-3.86,3.87,3.67,3.67,0,0,1-1.77-.46,1.88,1.88,0,0,0-.86,1.52c0,.78.47,1.38,2.05,1.38h2.3c2.49,0,3.66.78,3.66,2.53,0,1.91-2.06,3.71-5.26,3.71C325.45,78.21,323.66,77.06,323.66,75.21Zm8.59-.55c0-1.17-.87-1.6-2.49-1.6h-2.24a7.19,7.19,0,0,1-1.37-.19,2.75,2.75,0,0,0-1.36,2.2c0,1.34,1.29,2.24,3.53,2.24S332.25,76,332.25,74.66Zm-1.48-9a2.73,2.73,0,1,0-5.45,0,2.74,2.74,0,1,0,5.45,0Z"/><path class="cls-1" d="M351.88,71.76l.64-.86A5,5,0,0,0,356,72.28c1.66,0,2.5-1,2.5-2.08,0-1.29-1.37-1.89-2.65-2.34-1.62-.57-3.43-1.25-3.43-3.14,0-1.6,1.3-3,3.6-3a5.26,5.26,0,0,1,3.18,1.17l-.61.82a4.22,4.22,0,0,0-2.61-1c-1.62,0-2.36.9-2.36,1.89,0,1.21,1.27,1.66,2.54,2.13,1.69.64,3.53,1.24,3.53,3.35,0,1.69-1.33,3.12-3.75,3.12A6.37,6.37,0,0,1,351.88,71.76Z"/><path class="cls-1" d="M369,62.05h1l.15,1.33h0a6.38,6.38,0,0,1,3.66-1.62c2.91,0,4.39,2.22,4.39,5.59,0,3.74-2.26,5.91-4.82,5.91a5.42,5.42,0,0,1-3.23-1.33l0,2v4H369Zm8,5.3c0-2.63-.91-4.54-3.35-4.54a5.51,5.51,0,0,0-3.41,1.74v6.33a5,5,0,0,0,3.1,1.34C375.39,72.22,376.91,70.29,376.91,67.35Z"/><path class="cls-1" d="M387.09,70.24c0-2.42,2.15-3.57,7-4.12,0-1.63-.43-3.31-2.51-3.31a6,6,0,0,0-3.45,1.25l-.53-.86a7.54,7.54,0,0,1,4.15-1.44c2.61,0,3.53,1.87,3.53,4.29v7h-1l-.12-1.4h0a6.32,6.32,0,0,1-3.82,1.66A2.88,2.88,0,0,1,387.09,70.24Zm7,.31V67c-4.31.49-5.79,1.5-5.79,3.18a2,2,0,0,0,2.24,2.08A5.39,5.39,0,0,0,394.07,70.55Z"/><path class="cls-1" d="M404.64,67.53c0-3.65,2.36-5.77,5.07-5.77a4.64,4.64,0,0,1,3.21,1.34l-.68.82a3.59,3.59,0,0,0-2.51-1.11c-2.18,0-3.84,1.93-3.84,4.72s1.52,4.71,3.82,4.71A4.38,4.38,0,0,0,412.57,71l.57.83a5.28,5.28,0,0,1-3.49,1.41C406.79,73.26,404.64,71.17,404.64,67.53Z"/><path class="cls-1" d="M421.35,67.53c0-3.55,2.32-5.77,4.8-5.77,2.65,0,4.23,1.89,4.23,5.1a5.9,5.9,0,0,1-.06.86h-7.76c.06,2.67,1.64,4.54,4,4.54a4.88,4.88,0,0,0,2.92-1l.45.89a6.15,6.15,0,0,1-3.49,1.06C423.63,73.26,421.35,71.13,421.35,67.53Zm7.95-.76c0-2.65-1.22-4-3.13-4s-3.39,1.48-3.61,4Z"/><path class="cls-2" d="M96.14,147.3,39.45,90.61l56.69-56.7,56.69,56.7ZM45.56,90.61l50.58,50.57,50.58-50.57L96.14,40Z"/><rect class="cls-2" x="78.26" y="72.73" width="35.76" height="35.76" transform="translate(100.05 222.66) rotate(-135)"/><polygon class="cls-2" points="110.93 106.16 96.14 120.95 81.35 106.16 76.8 110.71 96.14 130.05 115.48 110.71 110.93 106.16"/><polygon class="cls-2" points="105.21 126.04 96.14 135.11 87.07 126.04 82.52 130.59 96.14 144.21 109.76 130.59 105.21 126.04"/></svg>