<svg id="レイヤー_1" data-name="レイヤー 1" xmlns="http://www.w3.org/2000/svg" viewBox="0 0 49.9 24"><defs><style>.cls-1{fill:#009544;}.cls-2{fill:#fff;}</style></defs><title>new-makinas-greenicon</title><rect class="cls-1" y="2" width="49.9" height="20"/><path class="cls-2" d="M18.83,16.32H17.57v-7H14.24v7H13V8.07h4.33a1.5,1.5,0,0,1,1.5,1.49Z"/><path class="cls-2" d="M22.22,16.32a1.48,1.48,0,0,1-1.47-1.49V8.06H26.3v4.13H22.07v2.94h4.28v1.19Zm-.15-7V11H25V9.29Z"/><path class="cls-2" d="M29.19,8.06v7h2.57V8.33H33v6.72h2.64v-7H36.9v8.26H29.41a1.48,1.48,0,0,1-1.47-1.49V8.06Z"/></svg>