<svg id="レイヤー_1" data-name="レイヤー 1" xmlns="http://www.w3.org/2000/svg" viewBox="0 0 300 300"><defs><style>.cls-1{fill:#fff;}</style></defs><title>service-drink</title><path class="cls-1" d="M0-3V297H300V-3ZM96.05,68.65V59.32a3.44,3.44,0,0,1,3.32-3.52H124.3a3.44,3.44,0,0,1,3.32,3.52V70.73H96.05Zm0,4h31.57l.95,5H95.11Zm51.42,149.84L134,238.2H89.71l-13.5-15.67V203.67h71.26Zm0-21.43H76.21V142.5h71.26Zm0-61.16H76.21v-22.3l21-38h29.27l21,38Zm80.32,87.81-8.54,10.14H175.37l-8.54-10.14V161.46l4.94-8.31,2.48-4.19h-1.57a.85.85,0,0,1-.85-.86v-6a1.44,1.44,0,0,1,1.44-1.44h48.08a1.45,1.45,0,0,1,1.44,1.44v6a.85.85,0,0,1-.85.86h-1.57l2.47,4.19,4.95,8.31Z"/></svg>