<svg id="レイヤー_1" data-name="レイヤー 1" xmlns="http://www.w3.org/2000/svg" viewBox="0 0 66.65 24"><defs><style>.cls-1{fill:#009544;}.cls-2{fill:#fff;}</style></defs><title>update-makinas-greenicon</title><rect class="cls-1" y="2" width="66.65" height="20"/><path class="cls-2" d="M13,16.47V8.21h1.23v7h3.32v-7h1.26V15a1.5,1.5,0,0,1-1.5,1.5Z"/><path class="cls-2" d="M24.91,16.45H22.07v3H20.73V8.21H26.4V15A1.48,1.48,0,0,1,24.91,16.45Zm-2.84-7v5.83h3V9.43Z"/><path class="cls-2" d="M32.5,16.47H28.32V8.21h4.33V5.37H34V15A1.5,1.5,0,0,1,32.5,16.47Zm-2.87-7v5.85h3V9.43Z"/><path class="cls-2" d="M41.56,15a1.5,1.5,0,0,1-1.43,1.5H35.91V11.1h4.3V9.43H36.07V8.21h5.49Zm-4.35-2.65v3h3v-3Z"/><path class="cls-2" d="M43.73,9.43h-.89V8.21h.89V5.37h1.34V8.21h1.78V9.43H45.07v5.85h2v1.19H45.22A1.5,1.5,0,0,1,43.73,15Z"/><path class="cls-2" d="M49.52,16.47A1.49,1.49,0,0,1,48,15V8.21H53.6v4.13H49.37v2.94h4.28v1.19Zm-.15-7v1.68h2.92V9.43Z"/></svg>