<svg data-name="Layer 1" xmlns="http://www.w3.org/2000/svg" viewBox="0 0 144 144"><path d="M136.05 0H8a8 8 0 0 0-8 8v128.1a8 8 0 0 0 8 7.9h69V88.31H58.22V66.52h18.7v-16c0-18.6 11.36-28.73 28-28.73a155.76 155.76 0 0 1 16.77.85V42H110.2c-9 0-10.78 4.29-10.78 10.58v13.94H121l-2.8 21.79H99.42V144h36.63a8 8 0 0 0 7.95-7.95V8a8 8 0 0 0-7.95-8z" fill="#4267b2"/><path d="M99.42 144V88.31h18.78l2.8-21.79H99.42V52.63c0-6.29 1.75-10.58 10.78-10.58h11.44V22.6a155.76 155.76 0 0 0-16.77-.85c-16.59 0-27.95 10.13-27.95 28.73v16h-18.7v21.83h18.7V144z" fill="#fff"/></svg>