<svg data-name="レイヤー 1" xmlns="http://www.w3.org/2000/svg" viewBox="0 0 300 300"><path d="M0-3v300h300V-3zm96.05 71.65v-9.33a3.44 3.44 0 0 1 3.32-3.52h24.93a3.44 3.44 0 0 1 3.32 3.52v11.41H96.05zm0 4h31.57l.95 5H95.11zm51.42 149.84L134 238.2H89.71l-13.5-15.67v-18.86h71.26zm0-21.43H76.21V142.5h71.26zm0-61.16H76.21v-22.3l21-38h29.27l21 38zm80.32 87.81l-8.54 10.14h-43.88l-8.54-10.14v-66.25l4.94-8.31 2.48-4.19h-1.57a.85.85 0 0 1-.85-.86v-6a1.44 1.44 0 0 1 1.44-1.44h48.08a1.45 1.45 0 0 1 1.44 1.44v6a.85.85 0 0 1-.85.86h-1.57l2.47 4.19 4.95 8.31z" fill="#fff"/></svg>