<svg version="1.1" id="レイヤー_1" xmlns="http://www.w3.org/2000/svg" x="0" y="0" viewBox="0 0 154.5 204.6" xml:space="preserve"><style>.st0{fill:#009544}</style><path class="st0" d="M0 185.2h2.1l4 11.1 1.5 4.2h.1c.5-1.4.9-2.8 1.4-4.2l4-11.1h2.1v19.2h-1.5v-12.2c0-1.6.1-3.7.2-5.3h-.1l-1.6 4.3-4 11.1H7l-4.1-11.1-1.5-4.3h-.1c.1 1.6.2 3.7.2 5.3v12.2H0v-19.2zm23.4 0H25v19.2h-1.6v-19.2zm20.3 19.2l-5.1-8.7h-3.9v8.7h-1.6v-19.2h5.6c3.8 0 6.4 1.4 6.4 5.1 0 3.1-1.9 4.8-4.8 5.3l5.2 8.8h-1.8zm-9-10h3.7c3.3 0 5.2-1.3 5.2-4.1s-1.8-3.8-5.2-3.8h-3.7v7.9zm25.7 3.6h-7.5l-2.2 6.5h-1.6l6.7-19.2h1.6l6.7 19.2h-1.7l-2-6.5zm-.4-1.3l-1.2-3.5c-.8-2.2-1.4-4.3-2.1-6.6h-.1c-.7 2.3-1.3 4.4-2.1 6.6l-1.2 3.5H60zm9.8-11.5h1.6v19.2h-1.6v-19.2zm18.1 0h5.3c3.9 0 6.4 1.4 6.4 4.7.1 1.9-1.1 3.7-3 4.2v.1c2.5.4 4.1 2 4.1 4.6 0 3.7-2.9 5.6-7.2 5.6h-5.7l.1-19.2zm4.8 8.4c3.8 0 5.3-1.4 5.3-3.5 0-2.6-1.8-3.6-5.2-3.6h-3.4v7.1h3.3zm.6 9.6c3.7 0 6-1.3 6-4.3 0-2.7-2.2-4-6-4h-3.7v8.3h3.7zm22.8-5.2h-7.5l-2.2 6.5h-1.6l6.7-19.2h1.6l6.7 19.2h-1.7l-2-6.5zm-.4-1.3l-1.2-3.5c-.8-2.2-1.4-4.3-2.1-6.6h-.1c-.7 2.3-1.3 4.4-2.1 6.6l-1.2 3.5h6.7zm8.3 5.2l1-1.1c1.4 1.6 3.4 2.5 5.6 2.6 2.9 0 4.6-1.5 4.6-3.7s-1.5-3.1-3.4-3.9l-2.9-1.3c-1.7-.8-3.9-2-3.9-4.8s2.4-4.8 5.7-4.8c2.1 0 4 .8 5.4 2.3l-.9 1c-1.2-1.2-2.8-1.9-4.5-1.9-2.4 0-4.1 1.3-4.1 3.3 0 2.2 1.9 3 3.3 3.6l2.9 1.3c2.2 1 4 2.2 4 5.1s-2.4 5.2-6.2 5.2c-2.5 0-4.9-1-6.6-2.9zm19.4-16.7H154v1.4h-9.1v7h7.6v1.3h-7.6v8.1h9.3v1.4h-10.9v-19.2zM.1 173.7c-.2-2 1.3-3.8 3.4-4h.3c.8 0 1.6.3 2.2.9l-.6.8c-.4-.4-1-.7-1.6-.7-1.4 0-2.5 1.2-2.5 3.1s1 3 2.5 3c.7 0 1.4-.3 1.9-.8l.5.8c-.7.6-1.5 1-2.5 1-2.1-.1-3.6-1.6-3.6-4.1zm9.9 0c0-2.6 1.6-4 3.5-4s3.5 1.5 3.5 4-1.7 4-3.5 4-3.5-1.5-3.5-4zm5.8 0c0-1.8-1-3.1-2.3-3.1s-2.3 1.2-2.3 3.1 1 3 2.3 3 2.3-1.2 2.3-3zm5.3-.6h3.6v.9h-3.6v-.9zm7.3-3.3h1.2l1.2 4.6c.2.7.3 1.4.5 2.1h.1c.2-.7.3-1.4.5-2.1l1.2-4.6h1.2l1.2 4.6c.2.7.3 1.4.5 2.1h.1c.2-.7.3-1.4.5-2.1l1.2-4.6h1.1l-2.1 7.6h-1.4l-1.2-4.2c-.2-.7-.4-1.4-.5-2.2h-.1c-.2.8-.3 1.5-.6 2.2l-1.1 4.2h-1.4l-2.1-7.6zm14.3 3.9c0-2.6 1.6-4 3.5-4s3.5 1.5 3.5 4-1.7 4-3.5 4-3.5-1.5-3.5-4zm5.8 0c0-1.8-1-3.1-2.3-3.1s-2.3 1.2-2.3 3.1 1 3 2.3 3 2.3-1.2 2.3-3zm6-3.9h.9l.1 1.4c.4-.9 1.2-1.5 2.2-1.6.3 0 .6 0 .8.2l-.2 1c-.2-.1-.5-.1-.7-.1-.7 0-1.4.5-2 1.8v5h-1.1v-7.7zm8.1-3.6h1.1v7.8l3.4-4.2h1.3l-2.6 3.1 2.9 4.6h-1.2l-2.3-3.8-1.5 1.8v2h-1.1v-11.3zm10.1 1.2c0-.4.3-.8.7-.8h.1c.4 0 .8.3.8.7v.1c0 .4-.4.8-.8.8s-.8-.3-.8-.8c0 .1 0 0 0 0zm.3 2.4h1.1v7.6H73v-7.6zm6.5 0h.9l.1 1.1c.6-.8 1.6-1.2 2.6-1.3 1.6 0 2.3 1 2.3 3v4.9h-1.2v-4.7c0-1.5-.4-2.1-1.5-2.1-.9.1-1.7.5-2.2 1.2v5.6h-1.1v-7.7zm10.7 9.2c.1-.7.5-1.4 1.1-1.7-.4-.3-.7-.7-.7-1.3 0-.6.4-1.1.9-1.4v-.1c-1.2-.9-1.3-2.6-.4-3.8.5-.7 1.4-1 2.2-1 .4 0 .7.1 1.1.2H97v.9h-1.6c.4.4.7 1 .7 1.6 0 1.4-1.1 2.6-2.6 2.7h-.2c-.4 0-.8-.1-1.2-.3-.3.2-.5.6-.5 1 0 .5.3.9 1.4.9h1.5c1.8 0 2.6.6 2.6 1.8s-1.5 2.6-3.8 2.6c-1.9-.1-3.1-.9-3.1-2.1zm5.8-.4c0-.8-.6-1-1.6-1H93c-.3 0-.7 0-1-.1-.5.3-.8.8-.8 1.4 0 .9.9 1.4 2.3 1.4s2.5-.9 2.5-1.7zm-1-6.2c.1-1-.6-1.8-1.6-1.9h-.1c-.9 0-1.7.8-1.7 1.7v.2c-.1.9.6 1.8 1.6 1.8.9.1 1.8-.6 1.8-1.6v-.2zm11.3 4.2l.6-.8c.6.6 1.5.9 2.3.9 1.1 0 1.6-.6 1.6-1.3s-.9-1.2-1.8-1.5c-1.1-.4-2.3-.9-2.3-2.2s.9-2.1 2.6-2.1c.8 0 1.7.3 2.3.9l-.6.7c-.5-.4-1.1-.6-1.8-.7-1 0-1.5.5-1.5 1.2s.9 1.1 1.7 1.4c1.1.4 2.4.9 2.4 2.3 0 1.2-1 2.2-2.7 2.2-1 0-2-.3-2.8-1zm10.2-6.8h.9l.1.9c.7-.6 1.5-1 2.5-1.1 2 0 3.1 1.5 3.1 3.9 0 2.6-1.6 4.1-3.3 4.1-.8 0-1.6-.4-2.1-.9v3.9h-1.1l-.1-10.8zm5.4 3.7c0-1.7-.6-2.9-2.1-2.9-.8.1-1.6.5-2.1 1.1v4.1c.5.5 1.2.8 1.9.8 1.3.1 2.3-1.1 2.3-3.1zm5.5 2c0-1.7 1.5-2.5 4.7-2.9 0-1-.3-2.1-1.6-2.1-.8 0-1.7.3-2.3.9l-.5-.8c.9-.6 1.9-1 3-1 1.9 0 2.6 1.3 2.6 3.1v4.7h-1l-.1-.9c-.7.7-1.6 1.1-2.6 1.1-1.1.1-2.1-.7-2.2-1.9v-.2zm4.8.2v-2.2c-2.7.3-3.6 1-3.6 2s.6 1.3 1.4 1.3c.8-.1 1.6-.5 2.2-1.1zm5.7-2c-.2-2 1.3-3.8 3.4-4h.3c.8 0 1.6.3 2.2.9l-.6.8c-.4-.4-1-.7-1.6-.7-1.4 0-2.5 1.2-2.5 3.1s1 3 2.5 3c.7 0 1.3-.3 1.9-.8l.5.8c-.7.6-1.5 1-2.5 1-2-.1-3.6-1.6-3.6-4.1zm9.9 0c0-2.5 1.7-4 3.4-4 1.9 0 3 1.4 3 3.6 0 .2 0 .5-.1.7h-5.2c-.1 1.5 1 2.7 2.4 2.8h.2c.7 0 1.4-.2 1.9-.6l.4.8c-.7.5-1.6.8-2.5.8-1.9-.1-3.5-1.6-3.5-4.1zm5.4-.6c0-1.6-.7-2.5-2-2.5-1.3.1-2.3 1.2-2.3 2.5h4.3zM77.2.1L.1 77.1l77.1 77.1 77.1-77.1L77.2.1zm0 8.3L146 77.2l-52.3 52.3-4.1-4.1-12.3 12.3L65 125.4l-4.1 4.1L8.4 77.1 77.2 8.4z"/><path transform="rotate(-45.001 77.167 77.144)" class="st0" d="M52.9 52.8h48.6v48.6H52.9z"/><path class="st0" d="M77.2 118.4L57.1 98.3l-6.2 6.2 26.3 26.3 26.3-26.3-6.2-6.2z"/></svg>