<svg id="レイヤー_1" xmlns="http://www.w3.org/2000/svg" viewBox="0 0 391.9 113.7"><style>.st0{fill:#fff}</style><path class="st0" d="M133.6 56.1h2.8l7.2 20.5c.9 2.5 1.9 5.1 2.8 7.7h.2c.9-2.6 1.8-5.1 2.7-7.7l7.3-20.5h2.8v34h-1.7V66.6c0-2.7.1-6.1.2-8.9h-.2l-2.6 7.4-7.6 21.1h-1.8L138 65.1l-2.7-7.5h-.3c.1 2.8.2 6.2.2 8.9V90h-1.6V56.1zm39.5 0h1.8v34h-1.7l-.1-34zm34.5 34l-9.6-16h-7.5v16h-1.7v-34h9.4c6.7 0 11 2.5 11 8.8 0 5.5-3.5 8.6-9.1 9.1l9.6 16.1h-2.1zm-10.1-17.5c6.2 0 9.7-2.5 9.7-7.7s-3.5-7.2-9.7-7.2h-7.1v14.9h7.1zm37.4 5.4h-13.8l-4.2 12.1h-1.7l12.1-34h1.5l12.2 34h-1.9L234.9 78zm-.5-1.5l-2.3-6.8c-1.5-4.1-2.6-7.6-3.9-11.8h-.2c-1.3 4.3-2.5 7.7-3.9 11.8l-2.4 6.8h12.7zm15.8-20.4h1.7v34h-1.7v-34zm29.4 0h8.9c6.8 0 11.1 2.6 11.1 8.2.2 3.4-2.1 6.5-5.4 7.4v.3c4.5.7 7.5 3.5 7.5 8.2 0 6.5-4.9 9.9-12.6 9.9h-9.5v-34zm7.8 15c7.4 0 10.3-2.5 10.3-6.7 0-5-3.4-6.8-10-6.8h-6.5v13.6h6.2zm1 17.4c7.1 0 11.5-2.5 11.5-8.2 0-5.2-4.2-7.6-11.5-7.6h-7.2v15.8h7.2zM327.8 78H314l-4.3 12.1H308l12.1-34h1.5l12.2 34H332L327.8 78zm-.5-1.5l-2.4-6.8c-1.5-4.1-2.6-7.6-3.9-11.8h-.1c-1.3 4.3-2.5 7.7-3.9 11.8l-2.4 6.8h12.7zm13.1 9l1.2-1.2c2.5 3 6.2 4.7 10.1 4.7 5.4 0 8.9-3 8.9-7.2 0-4.5-2.9-5.9-6.3-7.5l-5.2-2.3c-3-1.3-6.9-3.3-6.9-8.3s4.1-8.2 9.6-8.2c3.5 0 6.9 1.4 9.3 4l-1.1 1.2c-2.1-2.3-5.1-3.5-8.1-3.5-4.7 0-7.9 2.5-7.9 6.4 0 4.3 3.6 5.8 5.9 6.9l5.2 2.3c3.8 1.7 7.2 3.8 7.2 9s-4.2 9-10.6 9c-4.3 0-8.5-1.9-11.3-5.3zm32.8-29.4h18.2v1.6h-16.6v13.5h13.9v1.5h-13.9v15.8h17V90h-18.7V56.1zM133.7 33.7c0-3.7 2.4-5.8 5.1-5.8 1.2 0 2.4.5 3.2 1.3l-.7.8c-.7-.7-1.6-1.1-2.5-1.1-2.2 0-3.8 1.9-3.8 4.7s1.5 4.7 3.8 4.7c1.1 0 2.1-.5 2.9-1.2l.6.8c-1 .9-2.2 1.4-3.5 1.4-3 .1-5.1-2-5.1-5.6zm16.7 0c0-3.7 2.3-5.8 4.9-5.8s5 2.1 5 5.8-2.3 5.7-5 5.7-4.9-2.1-4.9-5.7zm8.7 0c0-2.8-1.6-4.7-3.7-4.7s-3.7 1.9-3.7 4.7 1.6 4.7 3.7 4.7 3.7-1.9 3.7-4.7zm9.7-.8h5v1h-5v-1zm12.9-4.7h1.3l1.9 7c.2 1 .5 2 .7 3h.1c.3-1 .5-2 .8-3l1.9-6.9h1.3l1.9 6.9c.3 1 .5 2 .8 3h.1c.2-1 .5-1.9.8-3l1.9-6.9h1.2l-3.1 11h-1.5l-1.9-6.7c-.3-1-.5-2.1-.8-3.1h-.1c-.2 1.1-.5 2.1-.8 3.2l-1.8 6.6h-1.5l-3.2-11.1zm22.8 5.5c0-3.7 2.3-5.8 4.9-5.8s5 2.1 5 5.8-2.3 5.7-5 5.7-4.9-2.1-4.9-5.7zm8.7 0c0-2.8-1.6-4.7-3.7-4.7s-3.7 1.9-3.7 4.7 1.6 4.7 3.7 4.7 3.7-1.9 3.7-4.7zm10.9-5.5h1l.1 2c.5-1.3 1.7-2.2 3.1-2.3.4 0 .8.1 1.1.2l-.2 1.1c-.3-.1-.7-.2-1-.2-1 0-2.1.7-2.9 2.7v7.4h-1.2V28.2zm13.8-5.4h1.2v11.8l5.2-6.5h1.4l-3.6 4.3 4.2 6.6H245l-3.5-5.8-2.4 2.8v3h-1.2V22.8zm16.8 1.9c0-.6.4-1 1-1 .5-.1 1.1.2 1.2.7s-.2 1.1-.7 1.2h-.5c-.5 0-.9-.4-1-.9zm.4 3.5h1.2v11h-1.2v-11zm11.8 0h1l.1 1.7c.9-1.2 2.3-1.9 3.7-2 2.3 0 3.3 1.4 3.3 4.2v7h-1.2v-6.8c0-2.3-.7-3.3-2.4-3.3-1.3 0-2.2.7-3.5 2v8.2h-1.1v-11zm17.7 13.1c.1-1.1.7-2.1 1.6-2.6v-.1c-.6-.4-1-1-1-1.8.1-.8.5-1.5 1.2-2v-.1c-.9-.8-1.4-1.8-1.4-3 0-2.1 1.7-3.9 3.8-3.9h.2c.5 0 1 .1 1.5.3h3.7v1h-2.5c.7.7 1.1 1.6 1.1 2.6.1 2.1-1.6 3.8-3.7 3.9h-.2c-.6 0-1.2-.2-1.8-.5-.5.3-.8.9-.9 1.5 0 .8.5 1.4 2 1.4h2.3c2.5 0 3.7.8 3.7 2.5 0 1.9-2.1 3.7-5.3 3.7-2.6.1-4.3-1-4.3-2.9zm8.5-.5c0-1.2-.9-1.6-2.5-1.6h-2.2c-.5 0-.9-.1-1.4-.2-.8.5-1.3 1.3-1.4 2.2 0 1.3 1.3 2.2 3.5 2.2s4-1.3 4-2.6zm-1.4-9c.1-1.5-1.1-2.8-2.6-2.9-1.5-.1-2.8 1.1-2.9 2.6v.3c-.2 1.5.9 2.9 2.4 3s2.9-.9 3-2.4c.1-.2.1-.4.1-.6zm21.1 6.1l.6-.9c.9.9 2.2 1.4 3.5 1.4 1.7 0 2.5-1 2.5-2.1 0-1.3-1.4-1.9-2.6-2.3-1.6-.6-3.4-1.2-3.4-3.1 0-1.6 1.3-3 3.6-3 1.2 0 2.3.4 3.2 1.2l-.6.8c-.7-.6-1.7-1-2.6-1-1.6 0-2.4.9-2.4 1.9 0 1.2 1.3 1.7 2.5 2.1 1.7.6 3.5 1.2 3.5 3.3 0 1.7-1.3 3.1-3.8 3.1-1.4 0-2.9-.5-4-1.4zm17.1-9.7h1l.1 1.3c1-.9 2.3-1.5 3.7-1.6 2.9 0 4.4 2.2 4.4 5.6 0 3.7-2.3 5.9-4.8 5.9-1.2-.1-2.3-.5-3.2-1.3v6H330V28.2zm8 5.3c0-2.6-.9-4.5-3.4-4.5-1.3.2-2.5.8-3.4 1.7V37c.8.8 1.9 1.3 3.1 1.3 2.1.1 3.6-1.9 3.7-4.8zm10.1 2.9c0-2.4 2.1-3.6 7-4.1 0-1.6-.4-3.3-2.5-3.3-1.3 0-2.5.5-3.5 1.3l-.5-.9c1.2-.9 2.7-1.4 4.1-1.4 2.6 0 3.5 1.9 3.5 4.3v7h-1l-.1-1.4c-1 1-2.4 1.6-3.8 1.7-1.6.2-3-.9-3.2-2.5v-.7zm7 .3v-3.5c-4.3.5-5.8 1.5-5.8 3.2-.1 1.1.8 2 1.9 2.1h.3c1.4-.2 2.6-.8 3.6-1.8zm10.5-3c0-3.7 2.4-5.8 5.1-5.8 1.2 0 2.4.5 3.2 1.3l-.7.8c-.7-.7-1.6-1.1-2.5-1.1-2.2 0-3.8 1.9-3.8 4.7s1.5 4.7 3.8 4.7c1.1 0 2.1-.5 2.9-1.2l.5.9c-1 .9-2.2 1.4-3.5 1.4-2.8 0-5-2.1-5-5.7zm16.7 0c0-3.5 2.3-5.8 4.8-5.8 2.6 0 4.2 1.9 4.2 5.1 0 .3 0 .6-.1.9h-7.8c.1 2.7 1.6 4.5 4 4.5 1.1 0 2.1-.4 2.9-1l.5.9c-1 .7-2.2 1.1-3.5 1.1-2.7 0-5-2.1-5-5.7zm8-.8c0-2.7-1.2-4-3.1-4s-3.4 1.5-3.6 4h6.7zM57 113.4L.3 56.7 57 0l56.7 56.7L57 113.4zM6.5 56.7L57 107.3l50.6-50.6L57 6.1 6.5 56.7z"/><path transform="rotate(-45.001 57.035 56.744)" class="st0" d="M39.2 38.9H75v35.8H39.2z"/><path class="st0" d="M71.8 72.3L57 87.1 42.2 72.3l-4.5 4.5L57 96.2l19.4-19.4z"/><path class="st0" d="M66.1 92.2l-9.1 9-9-9-4.6 4.5L57 110.3l13.7-13.6z"/></svg>